<?xml version="1.0" encoding="utf-8" standalone="no"?>
<!DOCTYPE svg PUBLIC "-//W3C//DTD SVG 1.1//EN"
  "http://www.w3.org/Graphics/SVG/1.1/DTD/svg11.dtd">
<!-- Created with matplotlib (http://matplotlib.org/) -->
<svg height="360pt" version="1.1" viewBox="0 0 576 360" width="576pt" xmlns="http://www.w3.org/2000/svg" xmlns:xlink="http://www.w3.org/1999/xlink">
 <defs>
  <style type="text/css">
*{stroke-linecap:butt;stroke-linejoin:round;}
  </style>
 </defs>
 <g id="figure_1">
  <g id="patch_1">
   <path d="M 0 360 
L 576 360 
L 576 0 
L 0 0 
z
" style="fill:#ffffff;"/>
  </g>
  <g id="axes_1">
   <g id="patch_2">
    <path d="M 72 320.4 
L 518.4 320.4 
L 518.4 43.2 
L 72 43.2 
z
" style="fill:#ffffff;"/>
   </g>
   <g id="PathCollection_1">
    <defs>
     <path d="M 0 3.162278 
C 0.838646 3.162278 1.643056 2.82908 2.236068 2.236068 
C 2.82908 1.643056 3.162278 0.838646 3.162278 0 
C 3.162278 -0.838646 2.82908 -1.643056 2.236068 -2.236068 
C 1.643056 -2.82908 0.838646 -3.162278 0 -3.162278 
C -0.838646 -3.162278 -1.643056 -2.82908 -2.236068 -2.236068 
C -2.82908 -1.643056 -3.162278 -0.838646 -3.162278 0 
C -3.162278 0.838646 -2.82908 1.643056 -2.236068 2.236068 
C -1.643056 2.82908 -0.838646 3.162278 0 3.162278 
z
" id="m9b64f28c4a" style="stroke:#1f77b4;"/>
    </defs>
    <g clip-path="url(#p5f67e4d22c)">
     <use style="fill:#1f77b4;stroke:#1f77b4;" x="242.458962" xlink:href="#m9b64f28c4a" y="142.894483"/>
     <use style="fill:#1f77b4;stroke:#1f77b4;" x="260.846855" xlink:href="#m9b64f28c4a" y="182.281708"/>
     <use style="fill:#1f77b4;stroke:#1f77b4;" x="246.029539" xlink:href="#m9b64f28c4a" y="199.057373"/>
     <use style="fill:#1f77b4;stroke:#1f77b4;" x="374.22538" xlink:href="#m9b64f28c4a" y="253.155294"/>
     <use style="fill:#1f77b4;stroke:#1f77b4;" x="407.460437" xlink:href="#m9b64f28c4a" y="215.149993"/>
     <use style="fill:#1f77b4;stroke:#1f77b4;" x="358.210818" xlink:href="#m9b64f28c4a" y="162.372872"/>
     <use style="fill:#1f77b4;stroke:#1f77b4;" x="281.478321" xlink:href="#m9b64f28c4a" y="235.808891"/>
     <use style="fill:#1f77b4;stroke:#1f77b4;" x="161.899781" xlink:href="#m9b64f28c4a" y="56.102444"/>
     <use style="fill:#1f77b4;stroke:#1f77b4;" x="129.737552" xlink:href="#m9b64f28c4a" y="91.579189"/>
     <use style="fill:#1f77b4;stroke:#1f77b4;" x="106.032016" xlink:href="#m9b64f28c4a" y="60.895176"/>
     <use style="fill:#1f77b4;stroke:#1f77b4;" x="190.709351" xlink:href="#m9b64f28c4a" y="131.871495"/>
     <use style="fill:#1f77b4;stroke:#1f77b4;" x="142.657766" xlink:href="#m9b64f28c4a" y="152.488415"/>
     <use style="fill:#1f77b4;stroke:#1f77b4;" x="184.73086" xlink:href="#m9b64f28c4a" y="138.947917"/>
     <use style="fill:#1f77b4;stroke:#1f77b4;" x="254.326125" xlink:href="#m9b64f28c4a" y="127.002542"/>
     <use style="fill:#1f77b4;stroke:#1f77b4;" x="274.335727" xlink:href="#m9b64f28c4a" y="194.704663"/>
     <use style="fill:#1f77b4;stroke:#1f77b4;" x="205.559754" xlink:href="#m9b64f28c4a" y="163.860106"/>
     <use style="fill:#1f77b4;stroke:#1f77b4;" x="233.239656" xlink:href="#m9b64f28c4a" y="195.263987"/>
     <use style="fill:#1f77b4;stroke:#1f77b4;" x="267.611609" xlink:href="#m9b64f28c4a" y="176.174805"/>
     <use style="fill:#1f77b4;stroke:#1f77b4;" x="184.290579" xlink:href="#m9b64f28c4a" y="81.982679"/>
     <use style="fill:#1f77b4;stroke:#1f77b4;" x="227.794682" xlink:href="#m9b64f28c4a" y="134.359179"/>
     <use style="fill:#1f77b4;stroke:#1f77b4;" x="227.632425" xlink:href="#m9b64f28c4a" y="174.100262"/>
     <use style="fill:#1f77b4;stroke:#1f77b4;" x="254.176412" xlink:href="#m9b64f28c4a" y="223.589561"/>
     <use style="fill:#1f77b4;stroke:#1f77b4;" x="382.147694" xlink:href="#m9b64f28c4a" y="258.688145"/>
     <use style="fill:#1f77b4;stroke:#1f77b4;" x="466.764254" xlink:href="#m9b64f28c4a" y="219.968132"/>
     <use style="fill:#1f77b4;stroke:#1f77b4;" x="314.624268" xlink:href="#m9b64f28c4a" y="198.928129"/>
     <use style="fill:#1f77b4;stroke:#1f77b4;" x="270.548916" xlink:href="#m9b64f28c4a" y="161.10215"/>
     <use style="fill:#1f77b4;stroke:#1f77b4;" x="144.592187" xlink:href="#m9b64f28c4a" y="131.069883"/>
     <use style="fill:#1f77b4;stroke:#1f77b4;" x="161.140345" xlink:href="#m9b64f28c4a" y="97.728069"/>
     <use style="fill:#1f77b4;stroke:#1f77b4;" x="204.499961" xlink:href="#m9b64f28c4a" y="142.904057"/>
     <use style="fill:#1f77b4;stroke:#1f77b4;" x="204.80254" xlink:href="#m9b64f28c4a" y="153.449834"/>
     <use style="fill:#1f77b4;stroke:#1f77b4;" x="256.162261" xlink:href="#m9b64f28c4a" y="180.614047"/>
     <use style="fill:#1f77b4;stroke:#1f77b4;" x="216.45257" xlink:href="#m9b64f28c4a" y="217.161571"/>
     <use style="fill:#1f77b4;stroke:#1f77b4;" x="275.963952" xlink:href="#m9b64f28c4a" y="172.419713"/>
     <use style="fill:#1f77b4;stroke:#1f77b4;" x="228.984423" xlink:href="#m9b64f28c4a" y="205.892981"/>
     <use style="fill:#1f77b4;stroke:#1f77b4;" x="246.25931" xlink:href="#m9b64f28c4a" y="142.691595"/>
     <use style="fill:#1f77b4;stroke:#1f77b4;" x="213.654838" xlink:href="#m9b64f28c4a" y="179.102142"/>
     <use style="fill:#1f77b4;stroke:#1f77b4;" x="275.4707" xlink:href="#m9b64f28c4a" y="210.987284"/>
     <use style="fill:#1f77b4;stroke:#1f77b4;" x="256.548675" xlink:href="#m9b64f28c4a" y="167.049983"/>
     <use style="fill:#1f77b4;stroke:#1f77b4;" x="339.815089" xlink:href="#m9b64f28c4a" y="240.631448"/>
     <use style="fill:#1f77b4;stroke:#1f77b4;" x="440.904311" xlink:href="#m9b64f28c4a" y="298.201301"/>
     <use style="fill:#1f77b4;stroke:#1f77b4;" x="397.77351" xlink:href="#m9b64f28c4a" y="178.690842"/>
     <use style="fill:#1f77b4;stroke:#1f77b4;" x="230.970768" xlink:href="#m9b64f28c4a" y="117.630277"/>
     <use style="fill:#1f77b4;stroke:#1f77b4;" x="114.767647" xlink:href="#m9b64f28c4a" y="116.721514"/>
     <use style="fill:#1f77b4;stroke:#1f77b4;" x="163.83333" xlink:href="#m9b64f28c4a" y="134.440923"/>
     <use style="fill:#1f77b4;stroke:#1f77b4;" x="143.799418" xlink:href="#m9b64f28c4a" y="113.298555"/>
     <use style="fill:#1f77b4;stroke:#1f77b4;" x="268.980449" xlink:href="#m9b64f28c4a" y="209.986098"/>
     <use style="fill:#1f77b4;stroke:#1f77b4;" x="287.741988" xlink:href="#m9b64f28c4a" y="188.340743"/>
     <use style="fill:#1f77b4;stroke:#1f77b4;" x="176.179776" xlink:href="#m9b64f28c4a" y="120.782596"/>
     <use style="fill:#1f77b4;stroke:#1f77b4;" x="254.896272" xlink:href="#m9b64f28c4a" y="216.890562"/>
     <use style="fill:#1f77b4;stroke:#1f77b4;" x="290.412443" xlink:href="#m9b64f28c4a" y="193.629465"/>
     <use style="fill:#1f77b4;stroke:#1f77b4;" x="351.958257" xlink:href="#m9b64f28c4a" y="247.48473"/>
     <use style="fill:#1f77b4;stroke:#1f77b4;" x="314.440222" xlink:href="#m9b64f28c4a" y="177.765509"/>
     <use style="fill:#1f77b4;stroke:#1f77b4;" x="268.47869" xlink:href="#m9b64f28c4a" y="134.493947"/>
     <use style="fill:#1f77b4;stroke:#1f77b4;" x="219.697378" xlink:href="#m9b64f28c4a" y="141.45033"/>
     <use style="fill:#1f77b4;stroke:#1f77b4;" x="156.979102" xlink:href="#m9b64f28c4a" y="128.244911"/>
     <use style="fill:#1f77b4;stroke:#1f77b4;" x="159.856798" xlink:href="#m9b64f28c4a" y="136.467598"/>
     <use style="fill:#1f77b4;stroke:#1f77b4;" x="231.965339" xlink:href="#m9b64f28c4a" y="163.244813"/>
     <use style="fill:#1f77b4;stroke:#1f77b4;" x="259.084442" xlink:href="#m9b64f28c4a" y="167.815141"/>
     <use style="fill:#1f77b4;stroke:#1f77b4;" x="230.890786" xlink:href="#m9b64f28c4a" y="188.58524"/>
     <use style="fill:#1f77b4;stroke:#1f77b4;" x="286.823873" xlink:href="#m9b64f28c4a" y="161.815757"/>
     <use style="fill:#1f77b4;stroke:#1f77b4;" x="230.880759" xlink:href="#m9b64f28c4a" y="154.916816"/>
     <use style="fill:#1f77b4;stroke:#1f77b4;" x="213.760043" xlink:href="#m9b64f28c4a" y="130.922964"/>
     <use style="fill:#1f77b4;stroke:#1f77b4;" x="254.071413" xlink:href="#m9b64f28c4a" y="176.555543"/>
     <use style="fill:#1f77b4;stroke:#1f77b4;" x="229.304394" xlink:href="#m9b64f28c4a" y="123.276171"/>
     <use style="fill:#1f77b4;stroke:#1f77b4;" x="204.603352" xlink:href="#m9b64f28c4a" y="159.047859"/>
     <use style="fill:#1f77b4;stroke:#1f77b4;" x="215.969704" xlink:href="#m9b64f28c4a" y="152.825703"/>
     <use style="fill:#1f77b4;stroke:#1f77b4;" x="247.756195" xlink:href="#m9b64f28c4a" y="189.859644"/>
     <use style="fill:#1f77b4;stroke:#1f77b4;" x="227.754979" xlink:href="#m9b64f28c4a" y="111.979965"/>
     <use style="fill:#1f77b4;stroke:#1f77b4;" x="217.941425" xlink:href="#m9b64f28c4a" y="152.573474"/>
     <use style="fill:#1f77b4;stroke:#1f77b4;" x="197.553862" xlink:href="#m9b64f28c4a" y="128.02398"/>
     <use style="fill:#1f77b4;stroke:#1f77b4;" x="205.827572" xlink:href="#m9b64f28c4a" y="116.095543"/>
     <use style="fill:#1f77b4;stroke:#1f77b4;" x="217.564528" xlink:href="#m9b64f28c4a" y="111.897116"/>
     <use style="fill:#1f77b4;stroke:#1f77b4;" x="226.009868" xlink:href="#m9b64f28c4a" y="187.788047"/>
     <use style="fill:#1f77b4;stroke:#1f77b4;" x="247.36255" xlink:href="#m9b64f28c4a" y="176.59126"/>
     <use style="fill:#1f77b4;stroke:#1f77b4;" x="230.909917" xlink:href="#m9b64f28c4a" y="171.318003"/>
     <use style="fill:#1f77b4;stroke:#1f77b4;" x="261.055298" xlink:href="#m9b64f28c4a" y="169.094332"/>
     <use style="fill:#1f77b4;stroke:#1f77b4;" x="246.404008" xlink:href="#m9b64f28c4a" y="199.625534"/>
     <use style="fill:#1f77b4;stroke:#1f77b4;" x="241.723661" xlink:href="#m9b64f28c4a" y="171.046626"/>
     <use style="fill:#1f77b4;stroke:#1f77b4;" x="258.808104" xlink:href="#m9b64f28c4a" y="173.258883"/>
     <use style="fill:#1f77b4;stroke:#1f77b4;" x="216.705299" xlink:href="#m9b64f28c4a" y="128.065957"/>
     <use style="fill:#1f77b4;stroke:#1f77b4;" x="229.031684" xlink:href="#m9b64f28c4a" y="140.706529"/>
     <use style="fill:#1f77b4;stroke:#1f77b4;" x="226.143859" xlink:href="#m9b64f28c4a" y="176.331298"/>
     <use style="fill:#1f77b4;stroke:#1f77b4;" x="233.474036" xlink:href="#m9b64f28c4a" y="186.448468"/>
     <use style="fill:#1f77b4;stroke:#1f77b4;" x="242.480461" xlink:href="#m9b64f28c4a" y="145.632924"/>
     <use style="fill:#1f77b4;stroke:#1f77b4;" x="242.029814" xlink:href="#m9b64f28c4a" y="191.00959"/>
     <use style="fill:#1f77b4;stroke:#1f77b4;" x="267.418991" xlink:href="#m9b64f28c4a" y="179.860303"/>
     <use style="fill:#1f77b4;stroke:#1f77b4;" x="248.436568" xlink:href="#m9b64f28c4a" y="218.876732"/>
     <use style="fill:#1f77b4;stroke:#1f77b4;" x="326.208913" xlink:href="#m9b64f28c4a" y="209.420146"/>
     <use style="fill:#1f77b4;stroke:#1f77b4;" x="323.566175" xlink:href="#m9b64f28c4a" y="196.367906"/>
     <use style="fill:#1f77b4;stroke:#1f77b4;" x="302.065076" xlink:href="#m9b64f28c4a" y="170.219607"/>
     <use style="fill:#1f77b4;stroke:#1f77b4;" x="329.767959" xlink:href="#m9b64f28c4a" y="240.710615"/>
     <use style="fill:#1f77b4;stroke:#1f77b4;" x="262.201045" xlink:href="#m9b64f28c4a" y="104.320653"/>
     <use style="fill:#1f77b4;stroke:#1f77b4;" x="246.027452" xlink:href="#m9b64f28c4a" y="181.838373"/>
     <use style="fill:#1f77b4;stroke:#1f77b4;" x="258.525537" xlink:href="#m9b64f28c4a" y="174.00563"/>
     <use style="fill:#1f77b4;stroke:#1f77b4;" x="226.326807" xlink:href="#m9b64f28c4a" y="192.114614"/>
     <use style="fill:#1f77b4;stroke:#1f77b4;" x="232.759858" xlink:href="#m9b64f28c4a" y="136.849072"/>
     <use style="fill:#1f77b4;stroke:#1f77b4;" x="229.888686" xlink:href="#m9b64f28c4a" y="117.548533"/>
     <use style="fill:#1f77b4;stroke:#1f77b4;" x="226.835048" xlink:href="#m9b64f28c4a" y="168.976134"/>
     <use style="fill:#1f77b4;stroke:#1f77b4;" x="213.648119" xlink:href="#m9b64f28c4a" y="141.697773"/>
     <use style="fill:#1f77b4;stroke:#1f77b4;" x="173.530335" xlink:href="#m9b64f28c4a" y="112.194636"/>
     <use style="fill:#1f77b4;stroke:#1f77b4;" x="246.045082" xlink:href="#m9b64f28c4a" y="161.115038"/>
     <use style="fill:#1f77b4;stroke:#1f77b4;" x="226.203769" xlink:href="#m9b64f28c4a" y="222.890682"/>
     <use style="fill:#1f77b4;stroke:#1f77b4;" x="242.956472" xlink:href="#m9b64f28c4a" y="168.501132"/>
     <use style="fill:#1f77b4;stroke:#1f77b4;" x="285.937271" xlink:href="#m9b64f28c4a" y="233.464812"/>
     <use style="fill:#1f77b4;stroke:#1f77b4;" x="254.31706" xlink:href="#m9b64f28c4a" y="193.140471"/>
     <use style="fill:#1f77b4;stroke:#1f77b4;" x="296.349535" xlink:href="#m9b64f28c4a" y="238.521188"/>
     <use style="fill:#1f77b4;stroke:#1f77b4;" x="382.607645" xlink:href="#m9b64f28c4a" y="217.579131"/>
     <use style="fill:#1f77b4;stroke:#1f77b4;" x="481.415015" xlink:href="#m9b64f28c4a" y="247.40004"/>
     <use style="fill:#1f77b4;stroke:#1f77b4;" x="325.095416" xlink:href="#m9b64f28c4a" y="174.474004"/>
     <use style="fill:#1f77b4;stroke:#1f77b4;" x="187.752573" xlink:href="#m9b64f28c4a" y="141.9651"/>
     <use style="fill:#1f77b4;stroke:#1f77b4;" x="216.694664" xlink:href="#m9b64f28c4a" y="153.279348"/>
     <use style="fill:#1f77b4;stroke:#1f77b4;" x="159.388698" xlink:href="#m9b64f28c4a" y="119.692669"/>
     <use style="fill:#1f77b4;stroke:#1f77b4;" x="233.003473" xlink:href="#m9b64f28c4a" y="175.007552"/>
     <use style="fill:#1f77b4;stroke:#1f77b4;" x="253.522174" xlink:href="#m9b64f28c4a" y="184.127955"/>
     <use style="fill:#1f77b4;stroke:#1f77b4;" x="256.075897" xlink:href="#m9b64f28c4a" y="175.22701"/>
     <use style="fill:#1f77b4;stroke:#1f77b4;" x="200.913318" xlink:href="#m9b64f28c4a" y="160.01701"/>
     <use style="fill:#1f77b4;stroke:#1f77b4;" x="183.718722" xlink:href="#m9b64f28c4a" y="130.603719"/>
     <use style="fill:#1f77b4;stroke:#1f77b4;" x="214.598514" xlink:href="#m9b64f28c4a" y="137.723591"/>
     <use style="fill:#1f77b4;stroke:#1f77b4;" x="215.16215" xlink:href="#m9b64f28c4a" y="202.493588"/>
     <use style="fill:#1f77b4;stroke:#1f77b4;" x="185.070115" xlink:href="#m9b64f28c4a" y="190.012087"/>
     <use style="fill:#1f77b4;stroke:#1f77b4;" x="206.256361" xlink:href="#m9b64f28c4a" y="59.699938"/>
     <use style="fill:#1f77b4;stroke:#1f77b4;" x="246.66539" xlink:href="#m9b64f28c4a" y="166.883916"/>
     <use style="fill:#1f77b4;stroke:#1f77b4;" x="227.633076" xlink:href="#m9b64f28c4a" y="153.457198"/>
     <use style="fill:#1f77b4;stroke:#1f77b4;" x="241.16236" xlink:href="#m9b64f28c4a" y="195.576972"/>
     <use style="fill:#1f77b4;stroke:#1f77b4;" x="213.31396" xlink:href="#m9b64f28c4a" y="198.396053"/>
     <use style="fill:#1f77b4;stroke:#1f77b4;" x="274.384642" xlink:href="#m9b64f28c4a" y="176.391317"/>
     <use style="fill:#1f77b4;stroke:#1f77b4;" x="257.80762" xlink:href="#m9b64f28c4a" y="193.32458"/>
     <use style="fill:#1f77b4;stroke:#1f77b4;" x="286.27523" xlink:href="#m9b64f28c4a" y="190.971664"/>
     <use style="fill:#1f77b4;stroke:#1f77b4;" x="387.850066" xlink:href="#m9b64f28c4a" y="277.521415"/>
     <use style="fill:#1f77b4;stroke:#1f77b4;" x="297.611013" xlink:href="#m9b64f28c4a" y="208.448049"/>
     <use style="fill:#1f77b4;stroke:#1f77b4;" x="205.043114" xlink:href="#m9b64f28c4a" y="134.615459"/>
     <use style="fill:#1f77b4;stroke:#1f77b4;" x="248.327738" xlink:href="#m9b64f28c4a" y="126.681824"/>
     <use style="fill:#1f77b4;stroke:#1f77b4;" x="246.025193" xlink:href="#m9b64f28c4a" y="229.718189"/>
     <use style="fill:#1f77b4;stroke:#1f77b4;" x="248.388561" xlink:href="#m9b64f28c4a" y="160.601741"/>
     <use style="fill:#1f77b4;stroke:#1f77b4;" x="356.358395" xlink:href="#m9b64f28c4a" y="245.8561"/>
     <use style="fill:#1f77b4;stroke:#1f77b4;" x="332.033702" xlink:href="#m9b64f28c4a" y="264.425357"/>
     <use style="fill:#1f77b4;stroke:#1f77b4;" x="331.0066" xlink:href="#m9b64f28c4a" y="182.843241"/>
     <use style="fill:#1f77b4;stroke:#1f77b4;" x="318.218665" xlink:href="#m9b64f28c4a" y="216.095947"/>
     <use style="fill:#1f77b4;stroke:#1f77b4;" x="353.227685" xlink:href="#m9b64f28c4a" y="199.284564"/>
     <use style="fill:#1f77b4;stroke:#1f77b4;" x="203.966436" xlink:href="#m9b64f28c4a" y="154.601253"/>
     <use style="fill:#1f77b4;stroke:#1f77b4;" x="201.938867" xlink:href="#m9b64f28c4a" y="118.841348"/>
     <use style="fill:#1f77b4;stroke:#1f77b4;" x="143.576375" xlink:href="#m9b64f28c4a" y="130.785619"/>
     <use style="fill:#1f77b4;stroke:#1f77b4;" x="119.873062" xlink:href="#m9b64f28c4a" y="126.909015"/>
     <use style="fill:#1f77b4;stroke:#1f77b4;" x="159.674395" xlink:href="#m9b64f28c4a" y="129.706002"/>
     <use style="fill:#1f77b4;stroke:#1f77b4;" x="175.646084" xlink:href="#m9b64f28c4a" y="138.196015"/>
     <use style="fill:#1f77b4;stroke:#1f77b4;" x="242.332017" xlink:href="#m9b64f28c4a" y="166.626532"/>
     <use style="fill:#1f77b4;stroke:#1f77b4;" x="225.699059" xlink:href="#m9b64f28c4a" y="173.503748"/>
     <use style="fill:#1f77b4;stroke:#1f77b4;" x="231.083631" xlink:href="#m9b64f28c4a" y="166.267887"/>
     <use style="fill:#1f77b4;stroke:#1f77b4;" x="254.723165" xlink:href="#m9b64f28c4a" y="169.1422"/>
     <use style="fill:#1f77b4;stroke:#1f77b4;" x="229.285977" xlink:href="#m9b64f28c4a" y="145.560753"/>
     <use style="fill:#1f77b4;stroke:#1f77b4;" x="217.54475" xlink:href="#m9b64f28c4a" y="175.250945"/>
     <use style="fill:#1f77b4;stroke:#1f77b4;" x="244.573885" xlink:href="#m9b64f28c4a" y="168.725009"/>
     <use style="fill:#1f77b4;stroke:#1f77b4;" x="272.573284" xlink:href="#m9b64f28c4a" y="185.973098"/>
     <use style="fill:#1f77b4;stroke:#1f77b4;" x="211.866156" xlink:href="#m9b64f28c4a" y="165.755327"/>
     <use style="fill:#1f77b4;stroke:#1f77b4;" x="220.47104" xlink:href="#m9b64f28c4a" y="183.793981"/>
     <use style="fill:#1f77b4;stroke:#1f77b4;" x="214.190165" xlink:href="#m9b64f28c4a" y="177.120758"/>
     <use style="fill:#1f77b4;stroke:#1f77b4;" x="198.738534" xlink:href="#m9b64f28c4a" y="161.548431"/>
     <use style="fill:#1f77b4;stroke:#1f77b4;" x="206.792219" xlink:href="#m9b64f28c4a" y="169.476174"/>
     <use style="fill:#1f77b4;stroke:#1f77b4;" x="219.184016" xlink:href="#m9b64f28c4a" y="142.062677"/>
     <use style="fill:#1f77b4;stroke:#1f77b4;" x="228.952551" xlink:href="#m9b64f28c4a" y="182.169033"/>
     <use style="fill:#1f77b4;stroke:#1f77b4;" x="212.291404" xlink:href="#m9b64f28c4a" y="154.202472"/>
     <use style="fill:#1f77b4;stroke:#1f77b4;" x="246.104235" xlink:href="#m9b64f28c4a" y="181.594244"/>
     <use style="fill:#1f77b4;stroke:#1f77b4;" x="215.258161" xlink:href="#m9b64f28c4a" y="154.072859"/>
     <use style="fill:#1f77b4;stroke:#1f77b4;" x="233.367395" xlink:href="#m9b64f28c4a" y="165.743544"/>
     <use style="fill:#1f77b4;stroke:#1f77b4;" x="242.795525" xlink:href="#m9b64f28c4a" y="173.903633"/>
     <use style="fill:#1f77b4;stroke:#1f77b4;" x="246.711461" xlink:href="#m9b64f28c4a" y="175.389395"/>
     <use style="fill:#1f77b4;stroke:#1f77b4;" x="272.547672" xlink:href="#m9b64f28c4a" y="195.064044"/>
     <use style="fill:#1f77b4;stroke:#1f77b4;" x="226.009866" xlink:href="#m9b64f28c4a" y="162.54483"/>
     <use style="fill:#1f77b4;stroke:#1f77b4;" x="248.673176" xlink:href="#m9b64f28c4a" y="188.620957"/>
     <use style="fill:#1f77b4;stroke:#1f77b4;" x="301.43334" xlink:href="#m9b64f28c4a" y="201.958935"/>
     <use style="fill:#1f77b4;stroke:#1f77b4;" x="303.214168" xlink:href="#m9b64f28c4a" y="234.215241"/>
     <use style="fill:#1f77b4;stroke:#1f77b4;" x="310.563666" xlink:href="#m9b64f28c4a" y="220.14009"/>
     <use style="fill:#1f77b4;stroke:#1f77b4;" x="275.323374" xlink:href="#m9b64f28c4a" y="174.285844"/>
     <use style="fill:#1f77b4;stroke:#1f77b4;" x="259.536554" xlink:href="#m9b64f28c4a" y="185.179956"/>
     <use style="fill:#1f77b4;stroke:#1f77b4;" x="273.092742" xlink:href="#m9b64f28c4a" y="186.823315"/>
     <use style="fill:#1f77b4;stroke:#1f77b4;" x="286.202738" xlink:href="#m9b64f28c4a" y="159.3266"/>
     <use style="fill:#1f77b4;stroke:#1f77b4;" x="271.906983" xlink:href="#m9b64f28c4a" y="162.297387"/>
     <use style="fill:#1f77b4;stroke:#1f77b4;" x="243.713874" xlink:href="#m9b64f28c4a" y="167.050719"/>
     <use style="fill:#1f77b4;stroke:#1f77b4;" x="213.823243" xlink:href="#m9b64f28c4a" y="165.972576"/>
     <use style="fill:#1f77b4;stroke:#1f77b4;" x="204.069091" xlink:href="#m9b64f28c4a" y="195.971334"/>
     <use style="fill:#1f77b4;stroke:#1f77b4;" x="241.84771" xlink:href="#m9b64f28c4a" y="180.980424"/>
     <use style="fill:#1f77b4;stroke:#1f77b4;" x="205.53849" xlink:href="#m9b64f28c4a" y="184.915943"/>
     <use style="fill:#1f77b4;stroke:#1f77b4;" x="218.497399" xlink:href="#m9b64f28c4a" y="153.694331"/>
     <use style="fill:#1f77b4;stroke:#1f77b4;" x="246.014357" xlink:href="#m9b64f28c4a" y="166.738838"/>
     <use style="fill:#1f77b4;stroke:#1f77b4;" x="184.041135" xlink:href="#m9b64f28c4a" y="152.546962"/>
     <use style="fill:#1f77b4;stroke:#1f77b4;" x="219.546272" xlink:href="#m9b64f28c4a" y="181.135812"/>
     <use style="fill:#1f77b4;stroke:#1f77b4;" x="192.662805" xlink:href="#m9b64f28c4a" y="161.073797"/>
     <use style="fill:#1f77b4;stroke:#1f77b4;" x="233.420612" xlink:href="#m9b64f28c4a" y="190.260266"/>
     <use style="fill:#1f77b4;stroke:#1f77b4;" x="270.956543" xlink:href="#m9b64f28c4a" y="190.010982"/>
     <use style="fill:#1f77b4;stroke:#1f77b4;" x="248.605808" xlink:href="#m9b64f28c4a" y="171.321317"/>
     <use style="fill:#1f77b4;stroke:#1f77b4;" x="232.733231" xlink:href="#m9b64f28c4a" y="176.747016"/>
     <use style="fill:#1f77b4;stroke:#1f77b4;" x="231.049685" xlink:href="#m9b64f28c4a" y="178.685686"/>
     <use style="fill:#1f77b4;stroke:#1f77b4;" x="245.985293" xlink:href="#m9b64f28c4a" y="138.565707"/>
     <use style="fill:#1f77b4;stroke:#1f77b4;" x="214.6301" xlink:href="#m9b64f28c4a" y="168.799389"/>
     <use style="fill:#1f77b4;stroke:#1f77b4;" x="241.666622" xlink:href="#m9b64f28c4a" y="163.948847"/>
     <use style="fill:#1f77b4;stroke:#1f77b4;" x="233.306896" xlink:href="#m9b64f28c4a" y="174.813501"/>
     <use style="fill:#1f77b4;stroke:#1f77b4;" x="216.909569" xlink:href="#m9b64f28c4a" y="147.292116"/>
     <use style="fill:#1f77b4;stroke:#1f77b4;" x="227.493833" xlink:href="#m9b64f28c4a" y="155.996064"/>
     <use style="fill:#1f77b4;stroke:#1f77b4;" x="219.510313" xlink:href="#m9b64f28c4a" y="174.294313"/>
     <use style="fill:#1f77b4;stroke:#1f77b4;" x="232.240544" xlink:href="#m9b64f28c4a" y="166.433953"/>
     <use style="fill:#1f77b4;stroke:#1f77b4;" x="216.534077" xlink:href="#m9b64f28c4a" y="167.148665"/>
     <use style="fill:#1f77b4;stroke:#1f77b4;" x="254.159059" xlink:href="#m9b64f28c4a" y="154.671214"/>
     <use style="fill:#1f77b4;stroke:#1f77b4;" x="228.044386" xlink:href="#m9b64f28c4a" y="142.416167"/>
     <use style="fill:#1f77b4;stroke:#1f77b4;" x="234.064935" xlink:href="#m9b64f28c4a" y="173.455143"/>
     <use style="fill:#1f77b4;stroke:#1f77b4;" x="247.874374" xlink:href="#m9b64f28c4a" y="172.508822"/>
     <use style="fill:#1f77b4;stroke:#1f77b4;" x="228.864305" xlink:href="#m9b64f28c4a" y="156.504574"/>
     <use style="fill:#1f77b4;stroke:#1f77b4;" x="232.729489" xlink:href="#m9b64f28c4a" y="138.963383"/>
     <use style="fill:#1f77b4;stroke:#1f77b4;" x="227.275534" xlink:href="#m9b64f28c4a" y="192.163587"/>
     <use style="fill:#1f77b4;stroke:#1f77b4;" x="233.897804" xlink:href="#m9b64f28c4a" y="133.323012"/>
     <use style="fill:#1f77b4;stroke:#1f77b4;" x="257.112832" xlink:href="#m9b64f28c4a" y="198.415937"/>
     <use style="fill:#1f77b4;stroke:#1f77b4;" x="234.012786" xlink:href="#m9b64f28c4a" y="181.949207"/>
     <use style="fill:#1f77b4;stroke:#1f77b4;" x="288.899606" xlink:href="#m9b64f28c4a" y="213.315529"/>
     <use style="fill:#1f77b4;stroke:#1f77b4;" x="271.228382" xlink:href="#m9b64f28c4a" y="183.348069"/>
     <use style="fill:#1f77b4;stroke:#1f77b4;" x="299.26842" xlink:href="#m9b64f28c4a" y="214.506716"/>
     <use style="fill:#1f77b4;stroke:#1f77b4;" x="344.346194" xlink:href="#m9b64f28c4a" y="192.630856"/>
     <use style="fill:#1f77b4;stroke:#1f77b4;" x="276.167864" xlink:href="#m9b64f28c4a" y="168.952199"/>
     <use style="fill:#1f77b4;stroke:#1f77b4;" x="253.665789" xlink:href="#m9b64f28c4a" y="182.557872"/>
     <use style="fill:#1f77b4;stroke:#1f77b4;" x="227.236426" xlink:href="#m9b64f28c4a" y="184.925148"/>
     <use style="fill:#1f77b4;stroke:#1f77b4;" x="271.854135" xlink:href="#m9b64f28c4a" y="200.530247"/>
     <use style="fill:#1f77b4;stroke:#1f77b4;" x="241.428617" xlink:href="#m9b64f28c4a" y="183.773729"/>
     <use style="fill:#1f77b4;stroke:#1f77b4;" x="271.006816" xlink:href="#m9b64f28c4a" y="168.698497"/>
     <use style="fill:#1f77b4;stroke:#1f77b4;" x="245.878405" xlink:href="#m9b64f28c4a" y="141.183372"/>
     <use style="fill:#1f77b4;stroke:#1f77b4;" x="198.933027" xlink:href="#m9b64f28c4a" y="159.822222"/>
     <use style="fill:#1f77b4;stroke:#1f77b4;" x="229.425526" xlink:href="#m9b64f28c4a" y="181.685562"/>
     <use style="fill:#1f77b4;stroke:#1f77b4;" x="226.280898" xlink:href="#m9b64f28c4a" y="175.879862"/>
     <use style="fill:#1f77b4;stroke:#1f77b4;" x="214.574716" xlink:href="#m9b64f28c4a" y="169.386697"/>
     <use style="fill:#1f77b4;stroke:#1f77b4;" x="247.235977" xlink:href="#m9b64f28c4a" y="171.019378"/>
     <use style="fill:#1f77b4;stroke:#1f77b4;" x="228.854516" xlink:href="#m9b64f28c4a" y="163.611559"/>
     <use style="fill:#1f77b4;stroke:#1f77b4;" x="217.801301" xlink:href="#m9b64f28c4a" y="183.638961"/>
     <use style="fill:#1f77b4;stroke:#1f77b4;" x="230.444077" xlink:href="#m9b64f28c4a" y="171.917463"/>
     <use style="fill:#1f77b4;stroke:#1f77b4;" x="243.864961" xlink:href="#m9b64f28c4a" y="181.8369"/>
     <use style="fill:#1f77b4;stroke:#1f77b4;" x="202.223786" xlink:href="#m9b64f28c4a" y="158.618148"/>
     <use style="fill:#1f77b4;stroke:#1f77b4;" x="230.096569" xlink:href="#m9b64f28c4a" y="191.849129"/>
     <use style="fill:#1f77b4;stroke:#1f77b4;" x="239.599324" xlink:href="#m9b64f28c4a" y="199.579875"/>
     <use style="fill:#1f77b4;stroke:#1f77b4;" x="212.799425" xlink:href="#m9b64f28c4a" y="174.038769"/>
     <use style="fill:#1f77b4;stroke:#1f77b4;" x="257.271193" xlink:href="#m9b64f28c4a" y="200.584007"/>
     <use style="fill:#1f77b4;stroke:#1f77b4;" x="242.060168" xlink:href="#m9b64f28c4a" y="174.680574"/>
     <use style="fill:#1f77b4;stroke:#1f77b4;" x="275.500738" xlink:href="#m9b64f28c4a" y="178.095432"/>
     <use style="fill:#1f77b4;stroke:#1f77b4;" x="257.99433" xlink:href="#m9b64f28c4a" y="189.722667"/>
     <use style="fill:#1f77b4;stroke:#1f77b4;" x="272.506112" xlink:href="#m9b64f28c4a" y="227.986826"/>
     <use style="fill:#1f77b4;stroke:#1f77b4;" x="283.857529" xlink:href="#m9b64f28c4a" y="184.585283"/>
     <use style="fill:#1f77b4;stroke:#1f77b4;" x="343.038251" xlink:href="#m9b64f28c4a" y="220.529297"/>
     <use style="fill:#1f77b4;stroke:#1f77b4;" x="365.902587" xlink:href="#m9b64f28c4a" y="280.650536"/>
     <use style="fill:#1f77b4;stroke:#1f77b4;" x="441.93411" xlink:href="#m9b64f28c4a" y="253.886208"/>
     <use style="fill:#1f77b4;stroke:#1f77b4;" x="379.153566" xlink:href="#m9b64f28c4a" y="207.830178"/>
     <use style="fill:#1f77b4;stroke:#1f77b4;" x="282.855772" xlink:href="#m9b64f28c4a" y="190.831004"/>
     <use style="fill:#1f77b4;stroke:#1f77b4;" x="290.467637" xlink:href="#m9b64f28c4a" y="167.221204"/>
     <use style="fill:#1f77b4;stroke:#1f77b4;" x="228.296192" xlink:href="#m9b64f28c4a" y="186.93378"/>
     <use style="fill:#1f77b4;stroke:#1f77b4;" x="218.572082" xlink:href="#m9b64f28c4a" y="167.286379"/>
     <use style="fill:#1f77b4;stroke:#1f77b4;" x="225.982932" xlink:href="#m9b64f28c4a" y="177.989754"/>
     <use style="fill:#1f77b4;stroke:#1f77b4;" x="240.904357" xlink:href="#m9b64f28c4a" y="179.669566"/>
     <use style="fill:#1f77b4;stroke:#1f77b4;" x="178.058211" xlink:href="#m9b64f28c4a" y="217.082772"/>
     <use style="fill:#1f77b4;stroke:#1f77b4;" x="254.377524" xlink:href="#m9b64f28c4a" y="176.063235"/>
     <use style="fill:#1f77b4;stroke:#1f77b4;" x="228.540873" xlink:href="#m9b64f28c4a" y="195.122591"/>
     <use style="fill:#1f77b4;stroke:#1f77b4;" x="192.668065" xlink:href="#m9b64f28c4a" y="161.383837"/>
     <use style="fill:#1f77b4;stroke:#1f77b4;" x="199.708842" xlink:href="#m9b64f28c4a" y="178.450763"/>
     <use style="fill:#1f77b4;stroke:#1f77b4;" x="225.994967" xlink:href="#m9b64f28c4a" y="185.667109"/>
     <use style="fill:#1f77b4;stroke:#1f77b4;" x="215.897432" xlink:href="#m9b64f28c4a" y="198.450549"/>
     <use style="fill:#1f77b4;stroke:#1f77b4;" x="212.74721" xlink:href="#m9b64f28c4a" y="202.022637"/>
     <use style="fill:#1f77b4;stroke:#1f77b4;" x="231.729695" xlink:href="#m9b64f28c4a" y="177.107134"/>
     <use style="fill:#1f77b4;stroke:#1f77b4;" x="215.16536" xlink:href="#m9b64f28c4a" y="195.801586"/>
     <use style="fill:#1f77b4;stroke:#1f77b4;" x="214.631813" xlink:href="#m9b64f28c4a" y="174.46443"/>
     <use style="fill:#1f77b4;stroke:#1f77b4;" x="191.040607" xlink:href="#m9b64f28c4a" y="166.936572"/>
     <use style="fill:#1f77b4;stroke:#1f77b4;" x="216.780705" xlink:href="#m9b64f28c4a" y="213.794949"/>
     <use style="fill:#1f77b4;stroke:#1f77b4;" x="172.854551" xlink:href="#m9b64f28c4a" y="166.897172"/>
     <use style="fill:#1f77b4;stroke:#1f77b4;" x="234.21399" xlink:href="#m9b64f28c4a" y="158.005064"/>
     <use style="fill:#1f77b4;stroke:#1f77b4;" x="186.7679" xlink:href="#m9b64f28c4a" y="181.76657"/>
     <use style="fill:#1f77b4;stroke:#1f77b4;" x="213.661472" xlink:href="#m9b64f28c4a" y="184.139002"/>
     <use style="fill:#1f77b4;stroke:#1f77b4;" x="234.564698" xlink:href="#m9b64f28c4a" y="179.050591"/>
     <use style="fill:#1f77b4;stroke:#1f77b4;" x="203.938076" xlink:href="#m9b64f28c4a" y="184.713055"/>
     <use style="fill:#1f77b4;stroke:#1f77b4;" x="228.019851" xlink:href="#m9b64f28c4a" y="194.849741"/>
     <use style="fill:#1f77b4;stroke:#1f77b4;" x="232.224064" xlink:href="#m9b64f28c4a" y="195.201758"/>
     <use style="fill:#1f77b4;stroke:#1f77b4;" x="247.590064" xlink:href="#m9b64f28c4a" y="189.914509"/>
     <use style="fill:#1f77b4;stroke:#1f77b4;" x="240.582687" xlink:href="#m9b64f28c4a" y="170.908544"/>
     <use style="fill:#1f77b4;stroke:#1f77b4;" x="211.862043" xlink:href="#m9b64f28c4a" y="185.888408"/>
    </g>
   </g>
   <g id="matplotlib.axis_1">
    <g id="xtick_1">
     <g id="line2d_1">
      <defs>
       <path d="M 0 0 
L 0 3.5 
" id="m5f9da724af" style="stroke:#000000;stroke-width:0.8;"/>
      </defs>
      <g>
       <use style="stroke:#000000;stroke-width:0.8;" x="99.9" xlink:href="#m5f9da724af" y="320.4"/>
      </g>
     </g>
     <g id="text_1">
      <!-- −1.0 -->
      <defs>
       <path d="M 10.59375 35.5 
L 73.1875 35.5 
L 73.1875 27.203125 
L 10.59375 27.203125 
z
" id="DejaVuSans-2212"/>
       <path d="M 12.40625 8.296875 
L 28.515625 8.296875 
L 28.515625 63.921875 
L 10.984375 60.40625 
L 10.984375 69.390625 
L 28.421875 72.90625 
L 38.28125 72.90625 
L 38.28125 8.296875 
L 54.390625 8.296875 
L 54.390625 0 
L 12.40625 0 
z
" id="DejaVuSans-31"/>
       <path d="M 10.6875 12.40625 
L 21 12.40625 
L 21 0 
L 10.6875 0 
z
" id="DejaVuSans-2e"/>
       <path d="M 31.78125 66.40625 
Q 24.171875 66.40625 20.328125 58.90625 
Q 16.5 51.421875 16.5 36.375 
Q 16.5 21.390625 20.328125 13.890625 
Q 24.171875 6.390625 31.78125 6.390625 
Q 39.453125 6.390625 43.28125 13.890625 
Q 47.125 21.390625 47.125 36.375 
Q 47.125 51.421875 43.28125 58.90625 
Q 39.453125 66.40625 31.78125 66.40625 
M 31.78125 74.21875 
Q 44.046875 74.21875 50.515625 64.515625 
Q 56.984375 54.828125 56.984375 36.375 
Q 56.984375 17.96875 50.515625 8.265625 
Q 44.046875 -1.421875 31.78125 -1.421875 
Q 19.53125 -1.421875 13.0625 8.265625 
Q 6.59375 17.96875 6.59375 36.375 
Q 6.59375 54.828125 13.0625 64.515625 
Q 19.53125 74.21875 31.78125 74.21875 
" id="DejaVuSans-30"/>
      </defs>
      <g transform="translate(82.902031 338.037813)scale(0.14 -0.14)">
       <use xlink:href="#DejaVuSans-2212"/>
       <use x="83.789062" xlink:href="#DejaVuSans-31"/>
       <use x="147.412109" xlink:href="#DejaVuSans-2e"/>
       <use x="179.199219" xlink:href="#DejaVuSans-30"/>
      </g>
     </g>
    </g>
    <g id="xtick_2">
     <g id="line2d_2">
      <g>
       <use style="stroke:#000000;stroke-width:0.8;" x="169.65" xlink:href="#m5f9da724af" y="320.4"/>
      </g>
     </g>
     <g id="text_2">
      <!-- −0.5 -->
      <defs>
       <path d="M 10.796875 72.90625 
L 49.515625 72.90625 
L 49.515625 64.59375 
L 19.828125 64.59375 
L 19.828125 46.734375 
Q 21.96875 47.46875 24.109375 47.828125 
Q 26.265625 48.1875 28.421875 48.1875 
Q 40.625 48.1875 47.75 41.5 
Q 54.890625 34.8125 54.890625 23.390625 
Q 54.890625 11.625 47.5625 5.09375 
Q 40.234375 -1.421875 26.90625 -1.421875 
Q 22.3125 -1.421875 17.546875 -0.640625 
Q 12.796875 0.140625 7.71875 1.703125 
L 7.71875 11.625 
Q 12.109375 9.234375 16.796875 8.0625 
Q 21.484375 6.890625 26.703125 6.890625 
Q 35.15625 6.890625 40.078125 11.328125 
Q 45.015625 15.765625 45.015625 23.390625 
Q 45.015625 31 40.078125 35.4375 
Q 35.15625 39.890625 26.703125 39.890625 
Q 22.75 39.890625 18.8125 39.015625 
Q 14.890625 38.140625 10.796875 36.28125 
z
" id="DejaVuSans-35"/>
      </defs>
      <g transform="translate(152.652031 338.037813)scale(0.14 -0.14)">
       <use xlink:href="#DejaVuSans-2212"/>
       <use x="83.789062" xlink:href="#DejaVuSans-30"/>
       <use x="147.412109" xlink:href="#DejaVuSans-2e"/>
       <use x="179.199219" xlink:href="#DejaVuSans-35"/>
      </g>
     </g>
    </g>
    <g id="xtick_3">
     <g id="line2d_3">
      <g>
       <use style="stroke:#000000;stroke-width:0.8;" x="239.4" xlink:href="#m5f9da724af" y="320.4"/>
      </g>
     </g>
     <g id="text_3">
      <!-- 0.0 -->
      <g transform="translate(228.267812 338.037813)scale(0.14 -0.14)">
       <use xlink:href="#DejaVuSans-30"/>
       <use x="63.623047" xlink:href="#DejaVuSans-2e"/>
       <use x="95.410156" xlink:href="#DejaVuSans-30"/>
      </g>
     </g>
    </g>
    <g id="xtick_4">
     <g id="line2d_4">
      <g>
       <use style="stroke:#000000;stroke-width:0.8;" x="309.15" xlink:href="#m5f9da724af" y="320.4"/>
      </g>
     </g>
     <g id="text_4">
      <!-- 0.5 -->
      <g transform="translate(298.017812 338.037813)scale(0.14 -0.14)">
       <use xlink:href="#DejaVuSans-30"/>
       <use x="63.623047" xlink:href="#DejaVuSans-2e"/>
       <use x="95.410156" xlink:href="#DejaVuSans-35"/>
      </g>
     </g>
    </g>
    <g id="xtick_5">
     <g id="line2d_5">
      <g>
       <use style="stroke:#000000;stroke-width:0.8;" x="378.9" xlink:href="#m5f9da724af" y="320.4"/>
      </g>
     </g>
     <g id="text_5">
      <!-- 1.0 -->
      <g transform="translate(367.767812 338.037813)scale(0.14 -0.14)">
       <use xlink:href="#DejaVuSans-31"/>
       <use x="63.623047" xlink:href="#DejaVuSans-2e"/>
       <use x="95.410156" xlink:href="#DejaVuSans-30"/>
      </g>
     </g>
    </g>
    <g id="xtick_6">
     <g id="line2d_6">
      <g>
       <use style="stroke:#000000;stroke-width:0.8;" x="448.65" xlink:href="#m5f9da724af" y="320.4"/>
      </g>
     </g>
     <g id="text_6">
      <!-- 1.5 -->
      <g transform="translate(437.517812 338.037813)scale(0.14 -0.14)">
       <use xlink:href="#DejaVuSans-31"/>
       <use x="63.623047" xlink:href="#DejaVuSans-2e"/>
       <use x="95.410156" xlink:href="#DejaVuSans-35"/>
      </g>
     </g>
    </g>
    <g id="xtick_7">
     <g id="line2d_7">
      <g>
       <use style="stroke:#000000;stroke-width:0.8;" x="518.4" xlink:href="#m5f9da724af" y="320.4"/>
      </g>
     </g>
     <g id="text_7">
      <!-- 2.0 -->
      <defs>
       <path d="M 19.1875 8.296875 
L 53.609375 8.296875 
L 53.609375 0 
L 7.328125 0 
L 7.328125 8.296875 
Q 12.9375 14.109375 22.625 23.890625 
Q 32.328125 33.6875 34.8125 36.53125 
Q 39.546875 41.84375 41.421875 45.53125 
Q 43.3125 49.21875 43.3125 52.78125 
Q 43.3125 58.59375 39.234375 62.25 
Q 35.15625 65.921875 28.609375 65.921875 
Q 23.96875 65.921875 18.8125 64.3125 
Q 13.671875 62.703125 7.8125 59.421875 
L 7.8125 69.390625 
Q 13.765625 71.78125 18.9375 73 
Q 24.125 74.21875 28.421875 74.21875 
Q 39.75 74.21875 46.484375 68.546875 
Q 53.21875 62.890625 53.21875 53.421875 
Q 53.21875 48.921875 51.53125 44.890625 
Q 49.859375 40.875 45.40625 35.40625 
Q 44.1875 33.984375 37.640625 27.21875 
Q 31.109375 20.453125 19.1875 8.296875 
" id="DejaVuSans-32"/>
      </defs>
      <g transform="translate(507.267812 338.037813)scale(0.14 -0.14)">
       <use xlink:href="#DejaVuSans-32"/>
       <use x="63.623047" xlink:href="#DejaVuSans-2e"/>
       <use x="95.410156" xlink:href="#DejaVuSans-30"/>
      </g>
     </g>
    </g>
    <g id="text_8">
     <!-- Quarterly Change in the Unemployment Rate -->
     <defs>
      <path d="M 39.40625 66.21875 
Q 28.65625 66.21875 22.328125 58.203125 
Q 16.015625 50.203125 16.015625 36.375 
Q 16.015625 22.609375 22.328125 14.59375 
Q 28.65625 6.59375 39.40625 6.59375 
Q 50.140625 6.59375 56.421875 14.59375 
Q 62.703125 22.609375 62.703125 36.375 
Q 62.703125 50.203125 56.421875 58.203125 
Q 50.140625 66.21875 39.40625 66.21875 
M 53.21875 1.3125 
L 66.21875 -12.890625 
L 54.296875 -12.890625 
L 43.5 -1.21875 
Q 41.890625 -1.3125 41.03125 -1.359375 
Q 40.1875 -1.421875 39.40625 -1.421875 
Q 24.03125 -1.421875 14.8125 8.859375 
Q 5.609375 19.140625 5.609375 36.375 
Q 5.609375 53.65625 14.8125 63.9375 
Q 24.03125 74.21875 39.40625 74.21875 
Q 54.734375 74.21875 63.90625 63.9375 
Q 73.09375 53.65625 73.09375 36.375 
Q 73.09375 23.6875 67.984375 14.640625 
Q 62.890625 5.609375 53.21875 1.3125 
" id="DejaVuSans-51"/>
      <path d="M 8.5 21.578125 
L 8.5 54.6875 
L 17.484375 54.6875 
L 17.484375 21.921875 
Q 17.484375 14.15625 20.5 10.265625 
Q 23.53125 6.390625 29.59375 6.390625 
Q 36.859375 6.390625 41.078125 11.03125 
Q 45.3125 15.671875 45.3125 23.6875 
L 45.3125 54.6875 
L 54.296875 54.6875 
L 54.296875 0 
L 45.3125 0 
L 45.3125 8.40625 
Q 42.046875 3.421875 37.71875 1 
Q 33.40625 -1.421875 27.6875 -1.421875 
Q 18.265625 -1.421875 13.375 4.4375 
Q 8.5 10.296875 8.5 21.578125 
M 31.109375 56 
z
" id="DejaVuSans-75"/>
      <path d="M 34.28125 27.484375 
Q 23.390625 27.484375 19.1875 25 
Q 14.984375 22.515625 14.984375 16.5 
Q 14.984375 11.71875 18.140625 8.90625 
Q 21.296875 6.109375 26.703125 6.109375 
Q 34.1875 6.109375 38.703125 11.40625 
Q 43.21875 16.703125 43.21875 25.484375 
L 43.21875 27.484375 
z
M 52.203125 31.203125 
L 52.203125 0 
L 43.21875 0 
L 43.21875 8.296875 
Q 40.140625 3.328125 35.546875 0.953125 
Q 30.953125 -1.421875 24.3125 -1.421875 
Q 15.921875 -1.421875 10.953125 3.296875 
Q 6 8.015625 6 15.921875 
Q 6 25.140625 12.171875 29.828125 
Q 18.359375 34.515625 30.609375 34.515625 
L 43.21875 34.515625 
L 43.21875 35.40625 
Q 43.21875 41.609375 39.140625 45 
Q 35.0625 48.390625 27.6875 48.390625 
Q 23 48.390625 18.546875 47.265625 
Q 14.109375 46.140625 10.015625 43.890625 
L 10.015625 52.203125 
Q 14.9375 54.109375 19.578125 55.046875 
Q 24.21875 56 28.609375 56 
Q 40.484375 56 46.34375 49.84375 
Q 52.203125 43.703125 52.203125 31.203125 
" id="DejaVuSans-61"/>
      <path d="M 41.109375 46.296875 
Q 39.59375 47.171875 37.8125 47.578125 
Q 36.03125 48 33.890625 48 
Q 26.265625 48 22.1875 43.046875 
Q 18.109375 38.09375 18.109375 28.8125 
L 18.109375 0 
L 9.078125 0 
L 9.078125 54.6875 
L 18.109375 54.6875 
L 18.109375 46.1875 
Q 20.953125 51.171875 25.484375 53.578125 
Q 30.03125 56 36.53125 56 
Q 37.453125 56 38.578125 55.875 
Q 39.703125 55.765625 41.0625 55.515625 
z
" id="DejaVuSans-72"/>
      <path d="M 18.3125 70.21875 
L 18.3125 54.6875 
L 36.8125 54.6875 
L 36.8125 47.703125 
L 18.3125 47.703125 
L 18.3125 18.015625 
Q 18.3125 11.328125 20.140625 9.421875 
Q 21.96875 7.515625 27.59375 7.515625 
L 36.8125 7.515625 
L 36.8125 0 
L 27.59375 0 
Q 17.1875 0 13.234375 3.875 
Q 9.28125 7.765625 9.28125 18.015625 
L 9.28125 47.703125 
L 2.6875 47.703125 
L 2.6875 54.6875 
L 9.28125 54.6875 
L 9.28125 70.21875 
z
" id="DejaVuSans-74"/>
      <path d="M 56.203125 29.59375 
L 56.203125 25.203125 
L 14.890625 25.203125 
Q 15.484375 15.921875 20.484375 11.0625 
Q 25.484375 6.203125 34.421875 6.203125 
Q 39.59375 6.203125 44.453125 7.46875 
Q 49.3125 8.734375 54.109375 11.28125 
L 54.109375 2.78125 
Q 49.265625 0.734375 44.1875 -0.34375 
Q 39.109375 -1.421875 33.890625 -1.421875 
Q 20.796875 -1.421875 13.15625 6.1875 
Q 5.515625 13.8125 5.515625 26.8125 
Q 5.515625 40.234375 12.765625 48.109375 
Q 20.015625 56 32.328125 56 
Q 43.359375 56 49.78125 48.890625 
Q 56.203125 41.796875 56.203125 29.59375 
M 47.21875 32.234375 
Q 47.125 39.59375 43.09375 43.984375 
Q 39.0625 48.390625 32.421875 48.390625 
Q 24.90625 48.390625 20.390625 44.140625 
Q 15.875 39.890625 15.1875 32.171875 
z
" id="DejaVuSans-65"/>
      <path d="M 9.421875 75.984375 
L 18.40625 75.984375 
L 18.40625 0 
L 9.421875 0 
z
" id="DejaVuSans-6c"/>
      <path d="M 32.171875 -5.078125 
Q 28.375 -14.84375 24.75 -17.8125 
Q 21.140625 -20.796875 15.09375 -20.796875 
L 7.90625 -20.796875 
L 7.90625 -13.28125 
L 13.1875 -13.28125 
Q 16.890625 -13.28125 18.9375 -11.515625 
Q 21 -9.765625 23.484375 -3.21875 
L 25.09375 0.875 
L 2.984375 54.6875 
L 12.5 54.6875 
L 29.59375 11.921875 
L 46.6875 54.6875 
L 56.203125 54.6875 
z
" id="DejaVuSans-79"/>
      <path id="DejaVuSans-20"/>
      <path d="M 64.40625 67.28125 
L 64.40625 56.890625 
Q 59.421875 61.53125 53.78125 63.8125 
Q 48.140625 66.109375 41.796875 66.109375 
Q 29.296875 66.109375 22.65625 58.46875 
Q 16.015625 50.828125 16.015625 36.375 
Q 16.015625 21.96875 22.65625 14.328125 
Q 29.296875 6.6875 41.796875 6.6875 
Q 48.140625 6.6875 53.78125 8.984375 
Q 59.421875 11.28125 64.40625 15.921875 
L 64.40625 5.609375 
Q 59.234375 2.09375 53.4375 0.328125 
Q 47.65625 -1.421875 41.21875 -1.421875 
Q 24.65625 -1.421875 15.125 8.703125 
Q 5.609375 18.84375 5.609375 36.375 
Q 5.609375 53.953125 15.125 64.078125 
Q 24.65625 74.21875 41.21875 74.21875 
Q 47.75 74.21875 53.53125 72.484375 
Q 59.328125 70.75 64.40625 67.28125 
" id="DejaVuSans-43"/>
      <path d="M 54.890625 33.015625 
L 54.890625 0 
L 45.90625 0 
L 45.90625 32.71875 
Q 45.90625 40.484375 42.875 44.328125 
Q 39.84375 48.1875 33.796875 48.1875 
Q 26.515625 48.1875 22.3125 43.546875 
Q 18.109375 38.921875 18.109375 30.90625 
L 18.109375 0 
L 9.078125 0 
L 9.078125 75.984375 
L 18.109375 75.984375 
L 18.109375 46.1875 
Q 21.34375 51.125 25.703125 53.5625 
Q 30.078125 56 35.796875 56 
Q 45.21875 56 50.046875 50.171875 
Q 54.890625 44.34375 54.890625 33.015625 
" id="DejaVuSans-68"/>
      <path d="M 54.890625 33.015625 
L 54.890625 0 
L 45.90625 0 
L 45.90625 32.71875 
Q 45.90625 40.484375 42.875 44.328125 
Q 39.84375 48.1875 33.796875 48.1875 
Q 26.515625 48.1875 22.3125 43.546875 
Q 18.109375 38.921875 18.109375 30.90625 
L 18.109375 0 
L 9.078125 0 
L 9.078125 54.6875 
L 18.109375 54.6875 
L 18.109375 46.1875 
Q 21.34375 51.125 25.703125 53.5625 
Q 30.078125 56 35.796875 56 
Q 45.21875 56 50.046875 50.171875 
Q 54.890625 44.34375 54.890625 33.015625 
" id="DejaVuSans-6e"/>
      <path d="M 45.40625 27.984375 
Q 45.40625 37.75 41.375 43.109375 
Q 37.359375 48.484375 30.078125 48.484375 
Q 22.859375 48.484375 18.828125 43.109375 
Q 14.796875 37.75 14.796875 27.984375 
Q 14.796875 18.265625 18.828125 12.890625 
Q 22.859375 7.515625 30.078125 7.515625 
Q 37.359375 7.515625 41.375 12.890625 
Q 45.40625 18.265625 45.40625 27.984375 
M 54.390625 6.78125 
Q 54.390625 -7.171875 48.1875 -13.984375 
Q 42 -20.796875 29.203125 -20.796875 
Q 24.46875 -20.796875 20.265625 -20.09375 
Q 16.0625 -19.390625 12.109375 -17.921875 
L 12.109375 -9.1875 
Q 16.0625 -11.328125 19.921875 -12.34375 
Q 23.78125 -13.375 27.78125 -13.375 
Q 36.625 -13.375 41.015625 -8.765625 
Q 45.40625 -4.15625 45.40625 5.171875 
L 45.40625 9.625 
Q 42.625 4.78125 38.28125 2.390625 
Q 33.9375 0 27.875 0 
Q 17.828125 0 11.671875 7.65625 
Q 5.515625 15.328125 5.515625 27.984375 
Q 5.515625 40.671875 11.671875 48.328125 
Q 17.828125 56 27.875 56 
Q 33.9375 56 38.28125 53.609375 
Q 42.625 51.21875 45.40625 46.390625 
L 45.40625 54.6875 
L 54.390625 54.6875 
z
" id="DejaVuSans-67"/>
      <path d="M 9.421875 54.6875 
L 18.40625 54.6875 
L 18.40625 0 
L 9.421875 0 
z
M 9.421875 75.984375 
L 18.40625 75.984375 
L 18.40625 64.59375 
L 9.421875 64.59375 
z
" id="DejaVuSans-69"/>
      <path d="M 8.6875 72.90625 
L 18.609375 72.90625 
L 18.609375 28.609375 
Q 18.609375 16.890625 22.84375 11.734375 
Q 27.09375 6.59375 36.625 6.59375 
Q 46.09375 6.59375 50.34375 11.734375 
Q 54.59375 16.890625 54.59375 28.609375 
L 54.59375 72.90625 
L 64.5 72.90625 
L 64.5 27.390625 
Q 64.5 13.140625 57.4375 5.859375 
Q 50.390625 -1.421875 36.625 -1.421875 
Q 22.796875 -1.421875 15.734375 5.859375 
Q 8.6875 13.140625 8.6875 27.390625 
z
" id="DejaVuSans-55"/>
      <path d="M 52 44.1875 
Q 55.375 50.25 60.0625 53.125 
Q 64.75 56 71.09375 56 
Q 79.640625 56 84.28125 50.015625 
Q 88.921875 44.046875 88.921875 33.015625 
L 88.921875 0 
L 79.890625 0 
L 79.890625 32.71875 
Q 79.890625 40.578125 77.09375 44.375 
Q 74.3125 48.1875 68.609375 48.1875 
Q 61.625 48.1875 57.5625 43.546875 
Q 53.515625 38.921875 53.515625 30.90625 
L 53.515625 0 
L 44.484375 0 
L 44.484375 32.71875 
Q 44.484375 40.625 41.703125 44.40625 
Q 38.921875 48.1875 33.109375 48.1875 
Q 26.21875 48.1875 22.15625 43.53125 
Q 18.109375 38.875 18.109375 30.90625 
L 18.109375 0 
L 9.078125 0 
L 9.078125 54.6875 
L 18.109375 54.6875 
L 18.109375 46.1875 
Q 21.1875 51.21875 25.484375 53.609375 
Q 29.78125 56 35.6875 56 
Q 41.65625 56 45.828125 52.96875 
Q 50 49.953125 52 44.1875 
" id="DejaVuSans-6d"/>
      <path d="M 18.109375 8.203125 
L 18.109375 -20.796875 
L 9.078125 -20.796875 
L 9.078125 54.6875 
L 18.109375 54.6875 
L 18.109375 46.390625 
Q 20.953125 51.265625 25.265625 53.625 
Q 29.59375 56 35.59375 56 
Q 45.5625 56 51.78125 48.09375 
Q 58.015625 40.1875 58.015625 27.296875 
Q 58.015625 14.40625 51.78125 6.484375 
Q 45.5625 -1.421875 35.59375 -1.421875 
Q 29.59375 -1.421875 25.265625 0.953125 
Q 20.953125 3.328125 18.109375 8.203125 
M 48.6875 27.296875 
Q 48.6875 37.203125 44.609375 42.84375 
Q 40.53125 48.484375 33.40625 48.484375 
Q 26.265625 48.484375 22.1875 42.84375 
Q 18.109375 37.203125 18.109375 27.296875 
Q 18.109375 17.390625 22.1875 11.75 
Q 26.265625 6.109375 33.40625 6.109375 
Q 40.53125 6.109375 44.609375 11.75 
Q 48.6875 17.390625 48.6875 27.296875 
" id="DejaVuSans-70"/>
      <path d="M 30.609375 48.390625 
Q 23.390625 48.390625 19.1875 42.75 
Q 14.984375 37.109375 14.984375 27.296875 
Q 14.984375 17.484375 19.15625 11.84375 
Q 23.34375 6.203125 30.609375 6.203125 
Q 37.796875 6.203125 41.984375 11.859375 
Q 46.1875 17.53125 46.1875 27.296875 
Q 46.1875 37.015625 41.984375 42.703125 
Q 37.796875 48.390625 30.609375 48.390625 
M 30.609375 56 
Q 42.328125 56 49.015625 48.375 
Q 55.71875 40.765625 55.71875 27.296875 
Q 55.71875 13.875 49.015625 6.21875 
Q 42.328125 -1.421875 30.609375 -1.421875 
Q 18.84375 -1.421875 12.171875 6.21875 
Q 5.515625 13.875 5.515625 27.296875 
Q 5.515625 40.765625 12.171875 48.375 
Q 18.84375 56 30.609375 56 
" id="DejaVuSans-6f"/>
      <path d="M 44.390625 34.1875 
Q 47.5625 33.109375 50.5625 29.59375 
Q 53.5625 26.078125 56.59375 19.921875 
L 66.609375 0 
L 56 0 
L 46.6875 18.703125 
Q 43.0625 26.03125 39.671875 28.421875 
Q 36.28125 30.8125 30.421875 30.8125 
L 19.671875 30.8125 
L 19.671875 0 
L 9.8125 0 
L 9.8125 72.90625 
L 32.078125 72.90625 
Q 44.578125 72.90625 50.734375 67.671875 
Q 56.890625 62.453125 56.890625 51.90625 
Q 56.890625 45.015625 53.6875 40.46875 
Q 50.484375 35.9375 44.390625 34.1875 
M 19.671875 64.796875 
L 19.671875 38.921875 
L 32.078125 38.921875 
Q 39.203125 38.921875 42.84375 42.21875 
Q 46.484375 45.515625 46.484375 51.90625 
Q 46.484375 58.296875 42.84375 61.546875 
Q 39.203125 64.796875 32.078125 64.796875 
z
" id="DejaVuSans-52"/>
     </defs>
     <g transform="translate(113.5625 357.106875)scale(0.16 -0.16)">
      <use xlink:href="#DejaVuSans-51"/>
      <use x="78.710938" xlink:href="#DejaVuSans-75"/>
      <use x="142.089844" xlink:href="#DejaVuSans-61"/>
      <use x="203.369141" xlink:href="#DejaVuSans-72"/>
      <use x="244.482422" xlink:href="#DejaVuSans-74"/>
      <use x="283.691406" xlink:href="#DejaVuSans-65"/>
      <use x="345.214844" xlink:href="#DejaVuSans-72"/>
      <use x="386.328125" xlink:href="#DejaVuSans-6c"/>
      <use x="414.111328" xlink:href="#DejaVuSans-79"/>
      <use x="473.291016" xlink:href="#DejaVuSans-20"/>
      <use x="505.078125" xlink:href="#DejaVuSans-43"/>
      <use x="574.902344" xlink:href="#DejaVuSans-68"/>
      <use x="638.28125" xlink:href="#DejaVuSans-61"/>
      <use x="699.560547" xlink:href="#DejaVuSans-6e"/>
      <use x="762.939453" xlink:href="#DejaVuSans-67"/>
      <use x="826.416016" xlink:href="#DejaVuSans-65"/>
      <use x="887.939453" xlink:href="#DejaVuSans-20"/>
      <use x="919.726562" xlink:href="#DejaVuSans-69"/>
      <use x="947.509766" xlink:href="#DejaVuSans-6e"/>
      <use x="1010.888672" xlink:href="#DejaVuSans-20"/>
      <use x="1042.675781" xlink:href="#DejaVuSans-74"/>
      <use x="1081.884766" xlink:href="#DejaVuSans-68"/>
      <use x="1145.263672" xlink:href="#DejaVuSans-65"/>
      <use x="1206.787109" xlink:href="#DejaVuSans-20"/>
      <use x="1238.574219" xlink:href="#DejaVuSans-55"/>
      <use x="1311.767578" xlink:href="#DejaVuSans-6e"/>
      <use x="1375.146484" xlink:href="#DejaVuSans-65"/>
      <use x="1436.669922" xlink:href="#DejaVuSans-6d"/>
      <use x="1534.082031" xlink:href="#DejaVuSans-70"/>
      <use x="1597.558594" xlink:href="#DejaVuSans-6c"/>
      <use x="1625.341797" xlink:href="#DejaVuSans-6f"/>
      <use x="1686.523438" xlink:href="#DejaVuSans-79"/>
      <use x="1745.703125" xlink:href="#DejaVuSans-6d"/>
      <use x="1843.115234" xlink:href="#DejaVuSans-65"/>
      <use x="1904.638672" xlink:href="#DejaVuSans-6e"/>
      <use x="1968.017578" xlink:href="#DejaVuSans-74"/>
      <use x="2007.226562" xlink:href="#DejaVuSans-20"/>
      <use x="2039.013672" xlink:href="#DejaVuSans-52"/>
      <use x="2108.464844" xlink:href="#DejaVuSans-61"/>
      <use x="2169.744141" xlink:href="#DejaVuSans-74"/>
      <use x="2208.953125" xlink:href="#DejaVuSans-65"/>
     </g>
    </g>
   </g>
   <g id="matplotlib.axis_2">
    <g id="ytick_1">
     <g id="line2d_8">
      <defs>
       <path d="M 0 0 
L -3.5 0 
" id="mb2a8fd0f54" style="stroke:#000000;stroke-width:0.8;"/>
      </defs>
      <g>
       <use style="stroke:#000000;stroke-width:0.8;" x="72" xlink:href="#mb2a8fd0f54" y="313.326243"/>
      </g>
     </g>
     <g id="text_9">
      <!-- −3 -->
      <defs>
       <path d="M 40.578125 39.3125 
Q 47.65625 37.796875 51.625 33 
Q 55.609375 28.21875 55.609375 21.1875 
Q 55.609375 10.40625 48.1875 4.484375 
Q 40.765625 -1.421875 27.09375 -1.421875 
Q 22.515625 -1.421875 17.65625 -0.515625 
Q 12.796875 0.390625 7.625 2.203125 
L 7.625 11.71875 
Q 11.71875 9.328125 16.59375 8.109375 
Q 21.484375 6.890625 26.8125 6.890625 
Q 36.078125 6.890625 40.9375 10.546875 
Q 45.796875 14.203125 45.796875 21.1875 
Q 45.796875 27.640625 41.28125 31.265625 
Q 36.765625 34.90625 28.71875 34.90625 
L 20.21875 34.90625 
L 20.21875 43.015625 
L 29.109375 43.015625 
Q 36.375 43.015625 40.234375 45.921875 
Q 44.09375 48.828125 44.09375 54.296875 
Q 44.09375 59.90625 40.109375 62.90625 
Q 36.140625 65.921875 28.71875 65.921875 
Q 24.65625 65.921875 20.015625 65.03125 
Q 15.375 64.15625 9.8125 62.3125 
L 9.8125 71.09375 
Q 15.4375 72.65625 20.34375 73.4375 
Q 25.25 74.21875 29.59375 74.21875 
Q 40.828125 74.21875 47.359375 69.109375 
Q 53.90625 64.015625 53.90625 55.328125 
Q 53.90625 49.265625 50.4375 45.09375 
Q 46.96875 40.921875 40.578125 39.3125 
" id="DejaVuSans-33"/>
      </defs>
      <g transform="translate(44.360937 318.645149)scale(0.14 -0.14)">
       <use xlink:href="#DejaVuSans-2212"/>
       <use x="83.789062" xlink:href="#DejaVuSans-33"/>
      </g>
     </g>
    </g>
    <g id="ytick_2">
     <g id="line2d_9">
      <g>
       <use style="stroke:#000000;stroke-width:0.8;" x="72" xlink:href="#mb2a8fd0f54" y="276.504396"/>
      </g>
     </g>
     <g id="text_10">
      <!-- −2 -->
      <g transform="translate(44.360937 281.823302)scale(0.14 -0.14)">
       <use xlink:href="#DejaVuSans-2212"/>
       <use x="83.789062" xlink:href="#DejaVuSans-32"/>
      </g>
     </g>
    </g>
    <g id="ytick_3">
     <g id="line2d_10">
      <g>
       <use style="stroke:#000000;stroke-width:0.8;" x="72" xlink:href="#mb2a8fd0f54" y="239.682549"/>
      </g>
     </g>
     <g id="text_11">
      <!-- −1 -->
      <g transform="translate(44.360937 245.001455)scale(0.14 -0.14)">
       <use xlink:href="#DejaVuSans-2212"/>
       <use x="83.789062" xlink:href="#DejaVuSans-31"/>
      </g>
     </g>
    </g>
    <g id="ytick_4">
     <g id="line2d_11">
      <g>
       <use style="stroke:#000000;stroke-width:0.8;" x="72" xlink:href="#mb2a8fd0f54" y="202.860702"/>
      </g>
     </g>
     <g id="text_12">
      <!-- 0 -->
      <g transform="translate(56.0925 208.179608)scale(0.14 -0.14)">
       <use xlink:href="#DejaVuSans-30"/>
      </g>
     </g>
    </g>
    <g id="ytick_5">
     <g id="line2d_12">
      <g>
       <use style="stroke:#000000;stroke-width:0.8;" x="72" xlink:href="#mb2a8fd0f54" y="166.038855"/>
      </g>
     </g>
     <g id="text_13">
      <!-- 1 -->
      <g transform="translate(56.0925 171.357761)scale(0.14 -0.14)">
       <use xlink:href="#DejaVuSans-31"/>
      </g>
     </g>
    </g>
    <g id="ytick_6">
     <g id="line2d_13">
      <g>
       <use style="stroke:#000000;stroke-width:0.8;" x="72" xlink:href="#mb2a8fd0f54" y="129.217008"/>
      </g>
     </g>
     <g id="text_14">
      <!-- 2 -->
      <g transform="translate(56.0925 134.535914)scale(0.14 -0.14)">
       <use xlink:href="#DejaVuSans-32"/>
      </g>
     </g>
    </g>
    <g id="ytick_7">
     <g id="line2d_14">
      <g>
       <use style="stroke:#000000;stroke-width:0.8;" x="72" xlink:href="#mb2a8fd0f54" y="92.395161"/>
      </g>
     </g>
     <g id="text_15">
      <!-- 3 -->
      <g transform="translate(56.0925 97.714067)scale(0.14 -0.14)">
       <use xlink:href="#DejaVuSans-33"/>
      </g>
     </g>
    </g>
    <g id="ytick_8">
     <g id="line2d_15">
      <g>
       <use style="stroke:#000000;stroke-width:0.8;" x="72" xlink:href="#mb2a8fd0f54" y="55.573314"/>
      </g>
     </g>
     <g id="text_16">
      <!-- 4 -->
      <defs>
       <path d="M 37.796875 64.3125 
L 12.890625 25.390625 
L 37.796875 25.390625 
z
M 35.203125 72.90625 
L 47.609375 72.90625 
L 47.609375 25.390625 
L 58.015625 25.390625 
L 58.015625 17.1875 
L 47.609375 17.1875 
L 47.609375 0 
L 37.796875 0 
L 37.796875 17.1875 
L 4.890625 17.1875 
L 4.890625 26.703125 
z
" id="DejaVuSans-34"/>
      </defs>
      <g transform="translate(56.0925 60.89222)scale(0.14 -0.14)">
       <use xlink:href="#DejaVuSans-34"/>
      </g>
     </g>
    </g>
    <g id="text_17">
     <!-- Quarterly Change in GDP Growth -->
     <defs>
      <path d="M 59.515625 10.40625 
L 59.515625 29.984375 
L 43.40625 29.984375 
L 43.40625 38.09375 
L 69.28125 38.09375 
L 69.28125 6.78125 
Q 63.578125 2.734375 56.6875 0.65625 
Q 49.8125 -1.421875 42 -1.421875 
Q 24.90625 -1.421875 15.25 8.5625 
Q 5.609375 18.5625 5.609375 36.375 
Q 5.609375 54.25 15.25 64.234375 
Q 24.90625 74.21875 42 74.21875 
Q 49.125 74.21875 55.546875 72.453125 
Q 61.96875 70.703125 67.390625 67.28125 
L 67.390625 56.78125 
Q 61.921875 61.421875 55.765625 63.765625 
Q 49.609375 66.109375 42.828125 66.109375 
Q 29.4375 66.109375 22.71875 58.640625 
Q 16.015625 51.171875 16.015625 36.375 
Q 16.015625 21.625 22.71875 14.15625 
Q 29.4375 6.6875 42.828125 6.6875 
Q 48.046875 6.6875 52.140625 7.59375 
Q 56.25 8.5 59.515625 10.40625 
" id="DejaVuSans-47"/>
      <path d="M 19.671875 64.796875 
L 19.671875 8.109375 
L 31.59375 8.109375 
Q 46.6875 8.109375 53.6875 14.9375 
Q 60.6875 21.78125 60.6875 36.53125 
Q 60.6875 51.171875 53.6875 57.984375 
Q 46.6875 64.796875 31.59375 64.796875 
z
M 9.8125 72.90625 
L 30.078125 72.90625 
Q 51.265625 72.90625 61.171875 64.09375 
Q 71.09375 55.28125 71.09375 36.53125 
Q 71.09375 17.671875 61.125 8.828125 
Q 51.171875 0 30.078125 0 
L 9.8125 0 
z
" id="DejaVuSans-44"/>
      <path d="M 19.671875 64.796875 
L 19.671875 37.40625 
L 32.078125 37.40625 
Q 38.96875 37.40625 42.71875 40.96875 
Q 46.484375 44.53125 46.484375 51.125 
Q 46.484375 57.671875 42.71875 61.234375 
Q 38.96875 64.796875 32.078125 64.796875 
z
M 9.8125 72.90625 
L 32.078125 72.90625 
Q 44.34375 72.90625 50.609375 67.359375 
Q 56.890625 61.8125 56.890625 51.125 
Q 56.890625 40.328125 50.609375 34.8125 
Q 44.34375 29.296875 32.078125 29.296875 
L 19.671875 29.296875 
L 19.671875 0 
L 9.8125 0 
z
" id="DejaVuSans-50"/>
      <path d="M 4.203125 54.6875 
L 13.1875 54.6875 
L 24.421875 12.015625 
L 35.59375 54.6875 
L 46.1875 54.6875 
L 57.421875 12.015625 
L 68.609375 54.6875 
L 77.59375 54.6875 
L 63.28125 0 
L 52.6875 0 
L 40.921875 44.828125 
L 29.109375 0 
L 18.5 0 
z
" id="DejaVuSans-77"/>
     </defs>
     <g transform="translate(37.033437 314.0675)rotate(-90)scale(0.16 -0.16)">
      <use xlink:href="#DejaVuSans-51"/>
      <use x="78.710938" xlink:href="#DejaVuSans-75"/>
      <use x="142.089844" xlink:href="#DejaVuSans-61"/>
      <use x="203.369141" xlink:href="#DejaVuSans-72"/>
      <use x="244.482422" xlink:href="#DejaVuSans-74"/>
      <use x="283.691406" xlink:href="#DejaVuSans-65"/>
      <use x="345.214844" xlink:href="#DejaVuSans-72"/>
      <use x="386.328125" xlink:href="#DejaVuSans-6c"/>
      <use x="414.111328" xlink:href="#DejaVuSans-79"/>
      <use x="473.291016" xlink:href="#DejaVuSans-20"/>
      <use x="505.078125" xlink:href="#DejaVuSans-43"/>
      <use x="574.902344" xlink:href="#DejaVuSans-68"/>
      <use x="638.28125" xlink:href="#DejaVuSans-61"/>
      <use x="699.560547" xlink:href="#DejaVuSans-6e"/>
      <use x="762.939453" xlink:href="#DejaVuSans-67"/>
      <use x="826.416016" xlink:href="#DejaVuSans-65"/>
      <use x="887.939453" xlink:href="#DejaVuSans-20"/>
      <use x="919.726562" xlink:href="#DejaVuSans-69"/>
      <use x="947.509766" xlink:href="#DejaVuSans-6e"/>
      <use x="1010.888672" xlink:href="#DejaVuSans-20"/>
      <use x="1042.675781" xlink:href="#DejaVuSans-47"/>
      <use x="1120.166016" xlink:href="#DejaVuSans-44"/>
      <use x="1197.167969" xlink:href="#DejaVuSans-50"/>
      <use x="1257.470703" xlink:href="#DejaVuSans-20"/>
      <use x="1289.257812" xlink:href="#DejaVuSans-47"/>
      <use x="1366.748047" xlink:href="#DejaVuSans-72"/>
      <use x="1407.830078" xlink:href="#DejaVuSans-6f"/>
      <use x="1469.011719" xlink:href="#DejaVuSans-77"/>
      <use x="1550.798828" xlink:href="#DejaVuSans-74"/>
      <use x="1590.007812" xlink:href="#DejaVuSans-68"/>
     </g>
    </g>
   </g>
   <g id="line2d_16">
    <path clip-path="url(#p5f67e4d22c)" d="M 99.9 82.421952 
L 476.55 307.8 
" style="fill:none;stroke:#000000;stroke-linecap:square;stroke-width:1.7;"/>
   </g>
   <g id="patch_3">
    <path d="M 72 320.4 
L 72 43.2 
" style="fill:none;stroke:#000000;stroke-linecap:square;stroke-linejoin:miter;stroke-width:0.8;"/>
   </g>
   <g id="patch_4">
    <path d="M 518.4 320.4 
L 518.4 43.2 
" style="fill:none;stroke:#000000;stroke-linecap:square;stroke-linejoin:miter;stroke-width:0.8;"/>
   </g>
   <g id="patch_5">
    <path d="M 72 320.4 
L 518.4 320.4 
" style="fill:none;stroke:#000000;stroke-linecap:square;stroke-linejoin:miter;stroke-width:0.8;"/>
   </g>
   <g id="patch_6">
    <path d="M 72 43.2 
L 518.4 43.2 
" style="fill:none;stroke:#000000;stroke-linecap:square;stroke-linejoin:miter;stroke-width:0.8;"/>
   </g>
  </g>
 </g>
 <defs>
  <clipPath id="p5f67e4d22c">
   <rect height="277.2" width="446.4" x="72" y="43.2"/>
  </clipPath>
 </defs>
</svg>
