<?xml version="1.0" encoding="UTF-8" standalone="no"?>
<!-- Created with Inkscape (http://www.inkscape.org/) -->
<svg
   xmlns:dc="http://purl.org/dc/elements/1.1/"
   xmlns:cc="http://web.resource.org/cc/"
   xmlns:rdf="http://www.w3.org/1999/02/22-rdf-syntax-ns#"
   xmlns:svg="http://www.w3.org/2000/svg"
   xmlns="http://www.w3.org/2000/svg"
   xmlns:sodipodi="http://inkscape.sourceforge.net/DTD/sodipodi-0.dtd"
   xmlns:inkscape="http://www.inkscape.org/namespaces/inkscape"
   version="1.0"
   width="799"
   height="600"
   id="svg2211"
   sodipodi:version="0.32"
   inkscape:version="0.43"
   sodipodi:docname="Bid_rent1.svg"
   sodipodi:docbase="removed">
  <metadata
     id="metadata29">
    <rdf:RDF>
      <cc:Work
         rdf:about="">
        <dc:format>image/svg+xml</dc:format>
        <dc:type
           rdf:resource="http://purl.org/dc/dcmitype/StillImage" />
      </cc:Work>
    </rdf:RDF>
  </metadata>
  <sodipodi:namedview
     inkscape:window-height="968"
     inkscape:window-width="1280"
     inkscape:pageshadow="2"
     inkscape:pageopacity="0.0"
     borderopacity="1.0"
     bordercolor="#666666"
     pagecolor="#ffffff"
     id="base"
     inkscape:zoom="0.65"
     inkscape:cx="399.5"
     inkscape:cy="361.53846"
     inkscape:window-x="-4"
     inkscape:window-y="-4"
     inkscape:current-layer="svg2211" />
  <defs
     id="defs2214" />
  <g
     id="layer4">
    <path
       d="M 20.551598,344.21125 C 20.551598,344.21125 12.941431,455.17536 359.96286,471.06192 C 484.80599,476.77721 567.4165,456.95833 624.35184,439.48921 C 749.69584,401.03068 743.94326,345.06835 743.94326,345.06835 L 20.551598,344.21125 z "
       style="fill:#6600ff;fill-opacity:1;fill-rule:evenodd;stroke:#000000;stroke-width:1px;stroke-linecap:butt;stroke-linejoin:miter;stroke-opacity:1;display:inline"
       id="path7115" />
    <path
       d="M 211.20141,344.38541 C 211.20141,344.38541 197.70533,420.66723 371.47894,420.66723 C 534.12042,420.66723 525.75679,345.24251 525.75679,345.24251 L 211.20141,344.38541 z "
       style="fill:#ff0000;fill-opacity:1;fill-rule:evenodd;stroke:#000000;stroke-width:1px;stroke-linecap:butt;stroke-linejoin:miter;stroke-opacity:1"
       id="path8088" />
    <path
       d="M 315.55303,344.12121 C 318.63802,350.5753 323.5255,356.52908 330.24053,361.37121 C 352.57116,377.47355 386.27501,375.3332 405.45928,356.58996 C 409.36879,352.76993 412.33893,348.54959 414.45928,344.12121 L 315.55303,344.12121 z "
       style="opacity:1;fill:#33cc33;fill-opacity:1;stroke:#000000;stroke-width:1.47193575;stroke-linecap:round;stroke-linejoin:miter;stroke-miterlimit:4;stroke-dasharray:none;stroke-dashoffset:0;stroke-opacity:1"
       id="path8090" />
    <path
       d="M 322.95239,507.79118 L 322.95239,509.76401 C 322.32256,509.17742 321.64951,508.73902 320.93325,508.44879 C 320.22315,508.15859 319.46674,508.01348 318.66403,508.01347 C 317.08329,508.01348 315.87304,508.4982 315.03328,509.46762 C 314.19351,510.43089 313.77363,511.82639 313.77363,513.6541 C 313.77363,515.47566 314.19351,516.87115 315.03328,517.84058 C 315.87304,518.80384 317.08329,519.28547 318.66403,519.28547 C 319.46674,519.28547 320.22315,519.14037 320.93325,518.85015 C 321.64951,518.55994 322.32256,518.12153 322.95239,517.53493 L 322.95239,519.48924 C 322.29786,519.93382 321.6032,520.26726 320.86842,520.48955 C 320.13979,520.71184 319.36794,520.82298 318.55289,520.82298 C 316.45964,520.82298 314.81099,520.1839 313.60691,518.90572 C 312.40284,517.62138 311.8008,515.87084 311.8008,513.6541 C 311.8008,511.4312 312.40284,509.68066 313.60691,508.40248 C 314.81099,507.11815 316.45964,506.47597 318.55289,506.47596 C 319.38029,506.47597 320.15831,506.58712 320.88694,506.8094 C 321.62172,507.02553 322.31021,507.35279 322.95239,507.79118 M 329.80636,511.37562 C 328.89249,511.37563 328.17005,511.73377 327.63903,512.45003 C 327.10799,513.16013 326.84248,514.13574 326.84248,515.37686 C 326.84248,516.61799 327.10491,517.59668 327.62976,518.31295 C 328.16079,519.02305 328.88632,519.37809 329.80636,519.37809 C 330.71404,519.37809 331.4334,519.01996 331.96444,518.30369 C 332.49546,517.58742 332.76097,516.61181 332.76098,515.37686 C 332.76097,514.14809 332.49546,513.17557 331.96444,512.45929 C 331.4334,511.73685 330.71404,511.37563 329.80636,511.37562 M 329.80636,509.93073 C 331.28829,509.93074 332.45223,510.41237 333.29818,511.37562 C 334.14411,512.33889 334.56708,513.67263 334.56709,515.37686 C 334.56708,517.07492 334.14411,518.40866 333.29818,519.37809 C 332.45223,520.34135 331.28829,520.82298 329.80636,520.82298 C 328.31824,520.82298 327.15122,520.34135 326.30528,519.37809 C 325.46551,518.40866 325.04563,517.07492 325.04563,515.37686 C 325.04563,513.67263 325.46551,512.33889 326.30528,511.37562 C 327.15122,510.41237 328.31824,509.93074 329.80636,509.93073 M 346.00581,514.29319 L 346.00581,520.55438 L 344.30158,520.55438 L 344.30158,514.34876 C 344.30157,513.36698 344.11016,512.63219 343.72733,512.14438 C 343.34449,511.65658 342.77024,511.41268 342.00458,511.41267 C 341.08453,511.41268 340.359,511.70598 339.82798,512.29257 C 339.29695,512.87918 339.03143,513.67881 339.03143,514.69146 L 339.03143,520.55438 L 337.31794,520.55438 L 337.31794,510.18081 L 339.03143,510.18081 L 339.03143,511.79242 C 339.43896,511.16878 339.91751,510.70258 340.46706,510.39384 C 341.02279,510.08511 341.66187,509.93074 342.38432,509.93073 C 343.57604,509.93074 344.47755,510.30123 345.08886,511.04218 C 345.70015,511.77699 346.0058,512.86066 346.00581,514.29319 M 356.03669,510.48646 L 356.03669,512.09807 C 355.55505,511.85109 355.0549,511.66584 354.53622,511.54234 C 354.01754,511.41885 353.48034,511.35711 352.92462,511.3571 C 352.07867,511.35711 351.44267,511.48678 351.01662,511.74611 C 350.59673,512.00545 350.38679,512.39446 350.38679,512.91313 C 350.38679,513.30832 350.53807,513.62015 350.84064,513.84861 C 351.1432,514.0709 351.75141,514.28393 352.66528,514.48769 L 353.24879,514.61736 C 354.45903,514.87671 355.31732,515.24411 355.82366,515.71956 C 356.33615,516.18884 356.59241,516.84645 356.59241,517.69239 C 356.59241,518.65565 356.20957,519.41823 355.44391,519.98013 C 354.68441,520.54203 353.63779,520.82298 352.30405,520.82298 C 351.74832,520.82298 351.1679,520.76741 350.56277,520.65627 C 349.96382,520.55129 349.33091,520.39075 348.66404,520.17464 L 348.66404,518.41483 C 349.29386,518.7421 349.91442,518.98909 350.52573,519.1558 C 351.13702,519.31635 351.74215,519.39662 352.3411,519.39662 C 353.14381,519.39662 353.76129,519.26077 354.19353,518.98908 C 354.62575,518.71122 354.84187,518.32221 354.84187,517.82206 C 354.84187,517.35895 354.68441,517.00391 354.36951,516.75691 C 354.06076,516.50993 353.37845,516.2722 352.32258,516.04373 L 351.7298,515.9048 C 350.67392,515.68251 349.91134,515.3429 349.44206,514.88596 C 348.97278,514.42286 348.73814,513.78995 348.73814,512.98723 C 348.73814,512.01163 349.08392,511.25831 349.77549,510.72727 C 350.46706,510.19625 351.44885,509.93074 352.72085,509.93073 C 353.35067,509.93074 353.94344,509.97705 354.49918,510.06966 C 355.0549,510.16229 355.5674,510.30123 356.03669,510.48646 M 368.18859,514.94154 L 368.18859,515.77513 L 360.35284,515.77513 C 360.42693,516.94833 360.77889,517.84367 361.40872,518.46114 C 362.04471,519.07244 362.9277,519.37809 364.05768,519.37809 C 364.7122,519.37809 365.34511,519.29782 365.95642,519.13728 C 366.57388,518.97674 367.18518,518.73592 367.79032,518.41483 L 367.79032,520.02644 C 367.17901,520.28578 366.55227,520.48337 365.91011,520.61922 C 365.26793,520.75506 364.61649,520.82298 363.9558,520.82298 C 362.30096,520.82298 360.98883,520.34135 360.0194,519.37809 C 359.05614,518.41483 358.57451,517.11196 358.57451,515.46948 C 358.57451,513.77143 359.03144,512.42534 359.9453,511.43119 C 360.86534,510.43089 362.10337,509.93074 363.65941,509.93073 C 365.0549,509.93074 366.15709,510.3815 366.96599,511.283 C 367.78105,512.17835 368.18858,513.39786 368.18859,514.94154 M 366.48436,514.44138 C 366.472,513.509 366.20957,512.76495 365.69708,512.20921 C 365.19074,511.65349 364.5177,511.37563 363.67794,511.37562 C 362.72702,511.37563 361.96444,511.64423 361.39019,512.18143 C 360.82211,512.71864 360.49485,513.47504 360.40841,514.45065 L 366.48436,514.44138 M 372.00458,515.37686 C 372.00458,516.63033 372.26083,517.61521 372.77334,518.33147 C 373.29201,519.04157 374.00211,519.39662 374.90362,519.39662 C 375.80513,519.39662 376.51523,519.04157 377.03391,518.33147 C 377.55258,517.61521 377.81192,516.63033 377.81193,515.37686 C 377.81192,514.12339 377.55258,513.14161 377.03391,512.4315 C 376.51523,511.71524 375.80513,511.35711 374.90362,511.3571 C 374.00211,511.35711 373.29201,511.71524 372.77334,512.4315 C 372.26083,513.14161 372.00458,514.12339 372.00458,515.37686 M 377.81193,518.99835 C 377.45379,519.61582 376.99994,520.07584 376.4504,520.3784 C 375.90701,520.67479 375.25249,520.82298 374.48683,520.82298 C 373.23335,520.82298 372.21143,520.32283 371.42107,519.32252 C 370.63687,518.32221 370.24478,517.00699 370.24478,515.37686 C 370.24478,513.74673 370.63687,512.43151 371.42107,511.43119 C 372.21143,510.43089 373.23335,509.93074 374.48683,509.93073 C 375.25249,509.93074 375.90701,510.08202 376.4504,510.38457 C 376.99994,510.68097 377.45379,511.1379 377.81193,511.75537 L 377.81193,510.18081 L 379.51616,510.18081 L 379.51616,524.50005 L 377.81193,524.50005 L 377.81193,518.99835 M 382.85052,516.46053 L 382.85052,510.18081 L 384.55475,510.18081 L 384.55475,516.39569 C 384.55475,517.37748 384.74617,518.11536 385.12901,518.60934 C 385.51184,519.09714 386.08609,519.34105 386.85176,519.34104 C 387.77179,519.34105 388.49732,519.04775 389.02836,518.46114 C 389.56555,517.87454 389.83415,517.07492 389.83416,516.06225 L 389.83416,510.18081 L 391.53839,510.18081 L 391.53839,520.55438 L 389.83416,520.55438 L 389.83416,518.9613 C 389.42045,519.59112 388.93882,520.0604 388.38927,520.36914 C 387.84589,520.6717 387.21298,520.82298 386.49054,520.82298 C 385.29881,520.82298 384.39421,520.4525 383.77674,519.71153 C 383.15926,518.97056 382.85052,517.88689 382.85052,516.46053 M 403.94037,514.94154 L 403.94037,515.77513 L 396.10462,515.77513 C 396.17871,516.94833 396.53067,517.84367 397.1605,518.46114 C 397.79649,519.07244 398.67948,519.37809 399.80947,519.37809 C 400.46398,519.37809 401.09689,519.29782 401.7082,519.13728 C 402.32567,518.97674 402.93697,518.73592 403.5421,518.41483 L 403.5421,520.02644 C 402.93079,520.28578 402.30405,520.48337 401.66189,520.61922 C 401.01971,520.75506 400.36827,520.82298 399.70758,520.82298 C 398.05275,520.82298 396.74061,520.34135 395.77118,519.37809 C 394.80792,518.41483 394.32629,517.11196 394.32629,515.46948 C 394.32629,513.77143 394.78322,512.42534 395.69708,511.43119 C 396.61712,510.43089 397.85515,509.93074 399.41119,509.93073 C 400.80668,509.93074 401.90887,510.3815 402.71777,511.283 C 403.53283,512.17835 403.94036,513.39786 403.94037,514.94154 M 402.23614,514.44138 C 402.22378,513.509 401.96136,512.76495 401.44886,512.20921 C 400.94252,511.65349 400.26948,511.37563 399.42972,511.37562 C 398.4788,511.37563 397.71622,511.64423 397.14197,512.18143 C 396.57389,512.71864 396.24663,513.47504 396.16019,514.45065 L 402.23614,514.44138 M 415.36057,514.29319 L 415.36057,520.55438 L 413.65634,520.55438 L 413.65634,514.34876 C 413.65633,513.36698 413.46491,512.63219 413.08209,512.14438 C 412.69924,511.65658 412.12499,511.41268 411.35933,511.41267 C 410.43929,511.41268 409.71376,511.70598 409.18273,512.29257 C 408.6517,512.87918 408.38619,513.67881 408.38619,514.69146 L 408.38619,520.55438 L 406.6727,520.55438 L 406.6727,510.18081 L 408.38619,510.18081 L 408.38619,511.79242 C 408.79372,511.16878 409.27226,510.70258 409.82182,510.39384 C 410.37754,510.08511 411.01663,509.93074 411.73908,509.93073 C 412.9308,509.93074 413.83231,510.30123 414.44362,511.04218 C 415.05491,511.77699 415.36056,512.86066 415.36057,514.29319 M 426.24356,510.57908 L 426.24356,512.17216 C 425.76192,511.90666 425.2772,511.70907 424.78941,511.57939 C 424.30777,511.44355 423.81996,511.37563 423.32599,511.37562 C 422.22071,511.37563 421.36242,511.72759 420.75112,512.4315 C 420.13982,513.12926 419.83417,514.11104 419.83417,515.37686 C 419.83417,516.64268 420.13982,517.62756 420.75112,518.33147 C 421.36242,519.02922 422.22071,519.37809 423.32599,519.37809 C 423.81996,519.37809 424.30777,519.31326 424.78941,519.18359 C 425.2772,519.04775 425.76192,518.84707 426.24356,518.58155 L 426.24356,520.15611 C 425.76809,520.3784 425.27411,520.54512 424.76162,520.65627 C 424.25528,520.76741 423.71499,520.82298 423.14075,520.82298 C 421.57853,520.82298 420.33741,520.33209 419.41738,519.35031 C 418.49734,518.36852 418.03732,517.04404 418.03732,515.37686 C 418.03732,513.68498 418.50042,512.35433 419.42664,511.38488 C 420.35902,510.41546 421.6341,509.93074 423.25189,509.93073 C 423.77674,509.93074 424.28924,509.98631 424.78941,510.09745 C 425.28955,510.20243 425.77427,510.36297 426.24356,510.57908 M 438.09907,514.94154 L 438.09907,515.77513 L 430.26332,515.77513 C 430.33741,516.94833 430.68937,517.84367 431.3192,518.46114 C 431.95519,519.07244 432.83818,519.37809 433.96816,519.37809 C 434.62268,519.37809 435.25559,519.29782 435.8669,519.13728 C 436.48436,518.97674 437.09566,518.73592 437.7008,518.41483 L 437.7008,520.02644 C 437.08949,520.28578 436.46275,520.48337 435.82059,520.61922 C 435.17841,520.75506 434.52697,520.82298 433.86628,520.82298 C 432.21144,520.82298 430.89931,520.34135 429.92988,519.37809 C 428.96662,518.41483 428.48499,517.11196 428.48499,515.46948 C 428.48499,513.77143 428.94192,512.42534 429.85578,511.43119 C 430.77582,510.43089 432.01385,509.93074 433.56989,509.93073 C 434.96538,509.93074 436.06757,510.3815 436.87647,511.283 C 437.69153,512.17835 438.09906,513.39786 438.09907,514.94154 M 436.39484,514.44138 C 436.38248,513.509 436.12006,512.76495 435.60756,512.20921 C 435.10122,511.65349 434.42818,511.37563 433.58842,511.37562 C 432.6375,511.37563 431.87492,511.64423 431.30067,512.18143 C 430.73259,512.71864 430.40533,513.47504 430.31889,514.45065 L 436.39484,514.44138 M 450.9549,511.37562 C 450.04103,511.37563 449.31859,511.73377 448.78757,512.45003 C 448.25653,513.16013 447.99102,514.13574 447.99102,515.37686 C 447.99102,516.61799 448.25345,517.59668 448.7783,518.31295 C 449.30933,519.02305 450.03486,519.37809 450.9549,519.37809 C 451.86258,519.37809 452.58194,519.01996 453.11298,518.30369 C 453.644,517.58742 453.90951,516.61181 453.90952,515.37686 C 453.90951,514.14809 453.644,513.17557 453.11298,512.45929 C 452.58194,511.73685 451.86258,511.37563 450.9549,511.37562 M 450.9549,509.93073 C 452.43683,509.93074 453.60077,510.41237 454.44672,511.37562 C 455.29265,512.33889 455.71562,513.67263 455.71563,515.37686 C 455.71562,517.07492 455.29265,518.40866 454.44672,519.37809 C 453.60077,520.34135 452.43683,520.82298 450.9549,520.82298 C 449.46678,520.82298 448.29976,520.34135 447.45382,519.37809 C 446.61405,518.40866 446.19417,517.07492 446.19417,515.37686 C 446.19417,513.67263 446.61405,512.33889 447.45382,511.37562 C 448.29976,510.41237 449.46678,509.93074 450.9549,509.93073 M 467.15434,514.29319 L 467.15434,520.55438 L 465.45011,520.55438 L 465.45011,514.34876 C 465.4501,513.36698 465.25868,512.63219 464.87586,512.14438 C 464.49301,511.65658 463.91876,511.41268 463.1531,511.41267 C 462.23306,511.41268 461.50753,511.70598 460.9765,512.29257 C 460.44547,512.87918 460.17996,513.67881 460.17996,514.69146 L 460.17996,520.55438 L 458.46647,520.55438 L 458.46647,510.18081 L 460.17996,510.18081 L 460.17996,511.79242 C 460.58749,511.16878 461.06603,510.70258 461.61559,510.39384 C 462.17131,510.08511 462.8104,509.93074 463.53285,509.93073 C 464.72457,509.93074 465.62608,510.30123 466.23739,511.04218 C 466.84868,511.77699 467.15433,512.86066 467.15434,514.29319 M 476.61097,506.14252 L 478.3152,506.14252 L 478.3152,520.55438 L 476.61097,520.55438 L 476.61097,506.14252 M 486.58627,515.33981 C 485.20929,515.33981 484.2553,515.49727 483.72427,515.81218 C 483.19324,516.12709 482.92773,516.6643 482.92773,517.42379 C 482.92773,518.02891 483.12532,518.51054 483.52051,518.86868 C 483.92186,519.22064 484.46524,519.39662 485.15064,519.39662 C 486.09537,519.39662 486.85177,519.06318 487.41986,518.39631 C 487.9941,517.72326 488.28123,516.83101 488.28124,515.71956 L 488.28124,515.33981 L 486.58627,515.33981 M 489.98547,514.63589 L 489.98547,520.55438 L 488.28124,520.55438 L 488.28124,518.97982 C 487.89222,519.60965 487.4075,520.07584 486.82708,520.3784 C 486.24665,520.67479 485.53656,520.82298 484.69679,520.82298 C 483.63473,520.82298 482.7888,520.5266 482.15897,519.93382 C 481.53532,519.33487 481.2235,518.53524 481.2235,517.53493 C 481.2235,516.36791 481.61251,515.48801 482.39053,514.89523 C 483.17472,514.30246 484.34174,514.00607 485.89161,514.00606 L 488.28124,514.00606 L 488.28124,513.83935 C 488.28123,513.05516 488.02189,512.45004 487.50322,512.02397 C 486.99071,511.59175 486.26826,511.37563 485.33588,511.37562 C 484.7431,511.37563 484.16576,511.44664 483.60386,511.58865 C 483.04196,511.73068 482.50167,511.94371 481.98299,512.22774 L 481.98299,510.65318 C 482.60664,510.41237 483.21177,510.2333 483.79837,510.11597 C 484.38497,509.99249 484.95613,509.93074 485.51186,509.93073 C 487.01232,509.93074 488.13303,510.31975 488.87401,511.09776 C 489.61497,511.87578 489.98546,513.05516 489.98547,514.63589 M 502.12811,514.29319 L 502.12811,520.55438 L 500.42388,520.55438 L 500.42388,514.34876 C 500.42387,513.36698 500.23245,512.63219 499.84963,512.14438 C 499.46678,511.65658 498.89253,511.41268 498.12687,511.41267 C 497.20683,511.41268 496.4813,511.70598 495.95027,512.29257 C 495.41924,512.87918 495.15373,513.67881 495.15373,514.69146 L 495.15373,520.55438 L 493.44024,520.55438 L 493.44024,510.18081 L 495.15373,510.18081 L 495.15373,511.79242 C 495.56126,511.16878 496.0398,510.70258 496.58936,510.39384 C 497.14508,510.08511 497.78417,509.93074 498.50662,509.93073 C 499.69834,509.93074 500.59985,510.30123 501.21116,511.04218 C 501.82245,511.77699 502.1281,512.86066 502.12811,514.29319 M 512.37201,511.75537 L 512.37201,506.14252 L 514.07624,506.14252 L 514.07624,520.55438 L 512.37201,520.55438 L 512.37201,518.99835 C 512.01387,519.61582 511.56002,520.07584 511.01048,520.3784 C 510.4671,520.67479 509.81257,520.82298 509.04691,520.82298 C 507.79343,520.82298 506.77151,520.32283 505.98115,519.32252 C 505.19695,518.32221 504.80486,517.00699 504.80486,515.37686 C 504.80486,513.74673 505.19695,512.43151 505.98115,511.43119 C 506.77151,510.43089 507.79343,509.93074 509.04691,509.93073 C 509.81257,509.93074 510.4671,510.08202 511.01048,510.38457 C 511.56002,510.68097 512.01387,511.1379 512.37201,511.75537 M 506.56466,515.37686 C 506.56466,516.63033 506.82091,517.61521 507.33342,518.33147 C 507.85209,519.04157 508.56219,519.39662 509.46371,519.39662 C 510.36521,519.39662 511.07531,519.04157 511.59399,518.33147 C 512.11266,517.61521 512.372,516.63033 512.37201,515.37686 C 512.372,514.12339 512.11266,513.14161 511.59399,512.4315 C 511.07531,511.71524 510.36521,511.35711 509.46371,511.3571 C 508.56219,511.35711 507.85209,511.71524 507.33342,512.4315 C 506.82091,513.14161 506.56466,514.12339 506.56466,515.37686 M 523.44951,516.46053 L 523.44951,510.18081 L 525.15374,510.18081 L 525.15374,516.39569 C 525.15374,517.37748 525.34516,518.11536 525.728,518.60934 C 526.11083,519.09714 526.68508,519.34105 527.45075,519.34104 C 528.37078,519.34105 529.09631,519.04775 529.62735,518.46114 C 530.16454,517.87454 530.43314,517.07492 530.43315,516.06225 L 530.43315,510.18081 L 532.13738,510.18081 L 532.13738,520.55438 L 530.43315,520.55438 L 530.43315,518.9613 C 530.01944,519.59112 529.53781,520.0604 528.98826,520.36914 C 528.44488,520.6717 527.81197,520.82298 527.08953,520.82298 C 525.8978,520.82298 524.9932,520.4525 524.37573,519.71153 C 523.75825,518.97056 523.44951,517.88689 523.44951,516.46053 M 542.27941,510.48646 L 542.27941,512.09807 C 541.79777,511.85109 541.29761,511.66584 540.77894,511.54234 C 540.26026,511.41885 539.72305,511.35711 539.16733,511.3571 C 538.32139,511.35711 537.68539,511.48678 537.25934,511.74611 C 536.83945,512.00545 536.62951,512.39446 536.62951,512.91313 C 536.62951,513.30832 536.78079,513.62015 537.08336,513.84861 C 537.38591,514.0709 537.99413,514.28393 538.90799,514.48769 L 539.49151,514.61736 C 540.70175,514.87671 541.56004,515.24411 542.06638,515.71956 C 542.57887,516.18884 542.83512,516.84645 542.83513,517.69239 C 542.83512,518.65565 542.45229,519.41823 541.68663,519.98013 C 540.92713,520.54203 539.88051,520.82298 538.54677,520.82298 C 537.99104,520.82298 537.41061,520.76741 536.80549,520.65627 C 536.20654,520.55129 535.57363,520.39075 534.90676,520.17464 L 534.90676,518.41483 C 535.53658,518.7421 536.15714,518.98909 536.76844,519.1558 C 537.37974,519.31635 537.98486,519.39662 538.58382,519.39662 C 539.38653,519.39662 540.004,519.26077 540.43624,518.98908 C 540.86847,518.71122 541.08458,518.32221 541.08459,517.82206 C 541.08458,517.35895 540.92713,517.00391 540.61222,516.75691 C 540.30348,516.50993 539.62117,516.2722 538.5653,516.04373 L 537.97252,515.9048 C 536.91663,515.68251 536.15405,515.3429 535.68478,514.88596 C 535.21549,514.42286 534.98085,513.78995 534.98085,512.98723 C 534.98085,512.01163 535.32664,511.25831 536.01821,510.72727 C 536.70978,510.19625 537.69156,509.93074 538.96357,509.93073 C 539.59338,509.93074 540.18616,509.97705 540.74189,510.06966 C 541.29761,510.16229 541.81012,510.30123 542.27941,510.48646 M 554.4313,514.94154 L 554.4313,515.77513 L 546.59555,515.77513 C 546.66964,516.94833 547.0216,517.84367 547.65143,518.46114 C 548.28742,519.07244 549.17041,519.37809 550.30039,519.37809 C 550.95491,519.37809 551.58782,519.29782 552.19913,519.13728 C 552.81659,518.97674 553.42789,518.73592 554.03303,518.41483 L 554.03303,520.02644 C 553.42172,520.28578 552.79498,520.48337 552.15282,520.61922 C 551.51064,520.75506 550.8592,520.82298 550.19851,520.82298 C 548.54367,520.82298 547.23154,520.34135 546.26211,519.37809 C 545.29885,518.41483 544.81722,517.11196 544.81722,515.46948 C 544.81722,513.77143 545.27415,512.42534 546.18801,511.43119 C 547.10805,510.43089 548.34608,509.93074 549.90212,509.93073 C 551.29761,509.93074 552.3998,510.3815 553.2087,511.283 C 554.02376,512.17835 554.43129,513.39786 554.4313,514.94154 M 552.72707,514.44138 C 552.71471,513.509 552.45228,512.76495 551.93979,512.20921 C 551.43345,511.65349 550.76041,511.37563 549.92065,511.37562 C 548.96973,511.37563 548.20715,511.64423 547.6329,512.18143 C 547.06482,512.71864 546.73756,513.47504 546.65112,514.45065 L 552.72707,514.44138"
       style="font-size:18.96882248px;font-style:normal;font-weight:normal;fill:#000000;fill-opacity:1;stroke:none;stroke-width:1px;stroke-linecap:butt;stroke-linejoin:miter;stroke-opacity:1;font-family:Bitstream Vera Sans"
       id="text10035" />
  </g>
  <g
     style="display:inline"
     id="layer2">
    <path
       d="M 49.007386,75.231148 C 49.693688,75.231158 50.214077,75.080321 50.568555,74.778635 C 50.923013,74.476971 51.100246,74.032001 51.100257,73.443723 C 51.100246,72.863011 50.923013,72.421811 50.568555,72.120123 C 50.214077,71.81092 49.693688,71.656312 49.007386,71.656298 L 46.597757,71.656298 L 46.597757,75.231148 L 49.007386,75.231148 M 49.154453,82.618417 C 50.029301,82.61842 50.685444,82.433644 51.122883,82.064089 C 51.567842,81.694541 51.790328,81.136442 51.790339,80.389792 C 51.790328,79.658236 51.571613,79.11145 51.134196,78.749434 C 50.696756,78.379889 50.036843,78.195113 49.154453,78.195106 L 46.597757,78.195106 L 46.597757,82.618417 L 49.154453,82.618417 M 53.204441,76.543434 C 54.13962,76.814951 54.86364,77.316485 55.376502,78.048039 C 55.889334,78.779608 56.145758,79.67709 56.145774,80.740489 C 56.145758,82.369538 55.595201,83.583779 54.494102,84.383216 C 53.392975,85.182655 51.71868,85.582375 49.471212,85.582375 L 42.242322,85.582375 L 42.242322,68.69234 L 48.78113,68.69234 C 51.126643,68.692357 52.823564,69.046825 53.871897,69.755745 C 54.927746,70.464696 55.455676,71.599748 55.455692,73.160902 C 55.455676,73.982979 55.263359,74.684372 54.878738,75.265086 C 54.494088,75.838279 53.93599,76.264394 53.204441,76.543434 M 59.70931,72.91202 L 63.759299,72.91202 L 63.759299,85.582375 L 59.70931,85.582375 L 59.70931,72.91202 M 59.70931,67.979632 L 63.759299,67.979632 L 63.759299,71.282975 L 59.70931,71.282975 L 59.70931,67.979632 M 76.2939,74.767322 L 76.2939,67.979632 L 80.366514,67.979632 L 80.366514,85.582375 L 76.2939,85.582375 L 76.2939,83.749698 C 75.735791,84.496345 75.121129,85.043131 74.449911,85.390057 C 73.778676,85.736983 73.001863,85.910446 72.119471,85.910446 C 70.558298,85.910446 69.27618,85.292013 68.273113,84.055144 C 67.270042,82.810737 66.768508,81.211861 66.768509,79.25851 C 66.768508,77.305172 67.270042,75.710067 68.273113,74.473189 C 69.27618,73.228792 70.558298,72.606587 72.119471,72.606574 C 72.994322,72.606587 73.767363,72.783821 74.438598,73.138277 C 75.117358,73.485215 75.735791,74.02823 76.2939,74.767322 M 73.624076,82.969114 C 74.491383,82.969117 75.151296,82.652358 75.603818,82.018837 C 76.063863,81.385324 76.29389,80.465216 76.2939,79.25851 C 76.29389,78.051817 76.063863,77.131709 75.603818,76.498183 C 75.151296,75.864675 74.491383,75.547917 73.624076,75.547907 C 72.764294,75.547917 72.104381,75.864675 71.644333,76.498183 C 71.191815,77.131709 70.965559,78.051817 70.965564,79.25851 C 70.965559,80.465216 71.191815,81.385324 71.644333,82.018837 C 72.104381,82.652358 72.764294,82.969117 73.624076,82.969114 M 98.704587,76.181424 C 99.617145,76.181434 100.26952,76.011742 100.6617,75.672348 C 101.06141,75.332973 101.26127,74.774875 101.26128,73.998051 C 101.26127,73.228792 101.06141,72.678235 100.6617,72.34638 C 100.26952,72.01455 99.617145,71.848629 98.704587,71.848616 L 96.871911,71.848616 L 96.871911,76.181424 L 98.704587,76.181424 M 96.871911,79.190633 L 96.871911,85.582375 L 92.516477,85.582375 L 92.516477,68.69234 L 99.168413,68.69234 C 101.39326,68.692357 103.0223,69.065679 104.05555,69.812309 C 105.09631,70.55897 105.6167,71.739272 105.61672,73.35322 C 105.6167,74.469429 105.3452,75.385766 104.8022,76.102235 C 104.26671,76.818722 103.45596,77.346653 102.36994,77.686029 C 102.96574,77.82179 103.49744,78.131007 103.96505,78.61368 C 104.44017,79.088825 104.91908,79.812844 105.40177,80.78574 L 107.76615,85.582375 L 103.1279,85.582375 L 101.06897,81.38532 C 100.65415,80.540634 100.23181,79.963681 99.801931,79.654459 C 99.379577,79.345248 98.813936,79.19064 98.105008,79.190633 L 96.871911,79.190633 M 122.8122,79.213259 L 122.8122,80.367166 L 113.34338,80.367166 C 113.44141,81.317447 113.78457,82.030154 114.37284,82.505289 C 114.9611,82.980429 115.78317,83.217998 116.83904,83.217996 C 117.69126,83.217998 118.56234,83.093557 119.4523,82.844673 C 120.34977,82.588252 121.26988,82.203617 122.21262,81.690766 L 122.21262,84.813103 C 121.25479,85.175114 120.29697,85.446621 119.33917,85.627626 C 118.38134,85.816173 117.42352,85.910446 116.46571,85.910446 C 114.17298,85.910446 112.38932,85.329722 111.11475,84.168273 C 109.84771,82.999284 109.2142,81.362698 109.2142,79.25851 C 109.2142,77.192044 109.8364,75.566771 111.08081,74.382686 C 112.33276,73.198624 114.05231,72.606587 116.23946,72.606574 C 118.2305,72.606587 119.82184,73.206166 121.01347,74.405312 C 122.21261,75.604481 122.81219,77.207128 122.8122,79.213259 M 118.64909,77.867034 C 118.64908,77.097771 118.42282,76.479337 117.97032,76.011732 C 117.52534,75.536604 116.94084,75.299035 116.21683,75.299025 C 115.43247,75.299035 114.79518,75.52152 114.30497,75.966481 C 113.81474,76.403919 113.50929,77.037436 113.38863,77.867034 L 118.64909,77.867034 M 138.60489,77.867034 L 138.60489,85.582375 L 134.53228,85.582375 L 134.53228,84.326652 L 134.53228,79.677084 C 134.53227,78.583519 134.50587,77.829332 134.45309,77.414521 C 134.40783,76.999727 134.32487,76.694281 134.20421,76.498183 C 134.04582,76.234227 133.83087,76.030596 133.55938,75.887291 C 133.28786,75.736463 132.97864,75.661045 132.63173,75.661035 C 131.78703,75.661045 131.12334,75.989116 130.64067,76.64525 C 130.15798,77.293859 129.91664,78.195113 129.91665,79.349013 L 129.91665,85.582375 L 125.86666,85.582375 L 125.86666,72.91202 L 129.91665,72.91202 L 129.91665,74.767322 C 130.52753,74.02823 131.17614,73.485215 131.86245,73.138277 C 132.54876,72.783821 133.30671,72.606587 134.13633,72.606574 C 135.59944,72.606587 136.7081,73.055329 137.4623,73.952799 C 138.22401,74.850294 138.60488,76.155037 138.60489,77.867034 M 146.80668,69.314545 L 146.80668,72.91202 L 150.98111,72.91202 L 150.98111,75.808101 L 146.80668,75.808101 L 146.80668,81.181689 C 146.80667,81.769959 146.92357,82.169678 147.15738,82.380848 C 147.39117,82.584481 147.85499,82.686296 148.54885,82.686294 L 150.63041,82.686294 L 150.63041,85.582375 L 147.15738,85.582375 C 145.55849,85.582375 144.42344,85.250532 143.75222,84.586847 C 143.08853,83.915621 142.75669,82.78057 142.75669,81.181689 L 142.75669,75.808101 L 140.74301,75.808101 L 140.74301,72.91202 L 142.75669,72.91202 L 142.75669,69.314545 L 146.80668,69.314545 M 175.10004,84.654724 C 174.30058,85.069527 173.46721,85.382515 172.59991,85.593687 C 171.73258,85.80486 170.82755,85.910446 169.88483,85.910446 C 167.0717,85.910446 164.84308,85.126091 163.19895,83.55738 C 161.55482,81.981132 160.73276,79.846782 160.73276,77.154326 C 160.73276,74.454345 161.55482,72.319996 163.19895,70.751272 C 164.84308,69.175036 167.0717,68.386911 169.88483,68.386894 C 170.82755,68.386911 171.73258,68.492497 172.59991,68.703653 C 173.46721,68.914842 174.30058,69.22783 175.10004,69.642616 L 175.10004,73.138277 C 174.29304,72.587733 173.49737,72.184243 172.71303,71.927805 C 171.92867,71.671395 171.10283,71.543184 170.23553,71.54317 C 168.68189,71.543184 167.46011,72.040947 166.57017,73.036461 C 165.68023,74.032001 165.23526,75.404621 165.23526,77.154326 C 165.23526,78.896507 165.68023,80.265356 166.57017,81.260879 C 167.46011,82.25641 168.68189,82.754173 170.23553,82.75417 C 171.10283,82.754173 171.92867,82.625962 172.71303,82.369535 C 173.49737,82.113114 174.29304,81.709624 175.10004,81.159063 L 175.10004,84.654724 M 178.40338,80.649987 L 178.40338,72.91202 L 182.47599,72.91202 L 182.47599,74.179056 C 182.47599,74.865377 182.47221,75.728921 182.46468,76.769691 C 182.45713,77.802936 182.45336,78.493017 182.45337,78.839936 C 182.45336,79.858095 182.47976,80.593428 182.53256,81.045935 C 182.58534,81.49091 182.67584,81.815211 182.80406,82.018837 C 182.96998,82.282806 183.18492,82.486437 183.44889,82.62973 C 183.72039,82.773028 184.02961,82.844676 184.37654,82.844673 C 185.22123,82.844676 185.88491,82.520375 186.3676,81.871771 C 186.85027,81.223174 187.09161,80.32192 187.09162,79.168008 L 187.09162,72.91202 L 191.14161,72.91202 L 191.14161,85.582375 L 187.09162,85.582375 L 187.09162,83.749698 C 186.48072,84.488803 185.83212,85.035589 185.14582,85.390057 C 184.46704,85.736983 183.71662,85.910446 182.89457,85.910446 C 181.43144,85.910446 180.31524,85.461705 179.54597,84.564221 C 178.78424,83.66674 178.40338,82.361996 178.40338,80.649987 M 204.4681,76.362429 C 204.11362,76.196517 203.75916,76.075847 203.4047,76.000419 C 203.05776,75.917468 202.70706,75.875988 202.35261,75.875978 C 201.31182,75.875988 200.50861,76.211601 199.94298,76.882819 C 199.38487,77.546512 199.10582,78.500559 199.10583,79.744961 L 199.10583,85.582375 L 195.05584,85.582375 L 195.05584,72.91202 L 199.10583,72.91202 L 199.10583,74.993579 C 199.62621,74.163983 200.22202,73.560634 200.89325,73.183528 C 201.57201,72.798905 202.38276,72.606587 203.32551,72.606574 C 203.46125,72.606587 203.60832,72.614129 203.76671,72.6292 C 203.92508,72.636755 204.1551,72.65938 204.45679,72.697077 L 204.4681,76.362429 M 204.90931,72.91202 L 208.9593,72.91202 L 212.11557,81.66814 L 215.26054,72.91202 L 219.32184,72.91202 L 214.33289,85.582375 L 209.88695,85.582375 L 204.90931,72.91202 M 234.26607,79.213259 L 234.26607,80.367166 L 224.79724,80.367166 C 224.89528,81.317447 225.23843,82.030154 225.82671,82.505289 C 226.41497,82.980429 227.23703,83.217998 228.2929,83.217996 C 229.14512,83.217998 230.01621,83.093557 230.90616,82.844673 C 231.80363,82.588252 232.72374,82.203617 233.66649,81.690766 L 233.66649,84.813103 C 232.70866,85.175114 231.75084,85.446621 230.79303,85.627626 C 229.8352,85.816173 228.87739,85.910446 227.91958,85.910446 C 225.62684,85.910446 223.84319,85.329722 222.56862,84.168273 C 221.30158,82.999284 220.66806,81.362698 220.66806,79.25851 C 220.66806,77.192044 221.29027,75.566771 222.53468,74.382686 C 223.78663,73.198624 225.50617,72.606587 227.69332,72.606574 C 229.68437,72.606587 231.2757,73.206166 232.46733,74.405312 C 233.66647,75.604481 234.26605,77.207128 234.26607,79.213259 M 230.10295,77.867034 C 230.10294,77.097771 229.87669,76.479337 229.42418,76.011732 C 228.9792,75.536604 228.39471,75.299035 227.6707,75.299025 C 226.88633,75.299035 226.24905,75.52152 225.75883,75.966481 C 225.2686,76.403919 224.96316,77.037436 224.84249,77.867034 L 230.10295,77.867034"
       style="font-size:23.16864777px;font-style:normal;font-weight:bold;fill:#000000;fill-opacity:1;stroke:none;stroke-width:1px;stroke-linecap:butt;stroke-linejoin:miter;stroke-opacity:1;font-family:Bitstream Vera Sans"
       id="text2223" />
    <path
       d="M 94.678584,311.19818 L 98.625908,311.19818 C 100.72386,311.1982 102.30643,311.64386 103.37361,312.53518 C 104.44683,313.42046 104.98345,314.73927 104.98347,316.4916 C 104.98345,317.64973 104.78033,318.76541 104.37409,319.83864 C 103.96782,320.90582 103.40695,321.80624 102.69147,322.53992 C 101.96991,323.29179 101.05432,323.85266 99.944715,324.22254 C 98.835091,324.59241 97.522349,324.77734 96.006486,324.77734 L 92.031876,324.77734 L 94.678584,311.19818 M 96.224771,312.70799 L 94.178347,323.26754 L 96.579485,323.26754 C 98.634997,323.26754 100.22666,322.67635 101.35447,321.49397 C 102.48227,320.3116 103.04617,318.64414 103.04618,316.4916 C 103.04617,315.18796 102.68236,314.23297 101.95476,313.62661 C 101.22713,313.01421 100.0872,312.708 98.534956,312.70799 L 96.224771,312.70799 M 109.27641,310.62519 L 110.94993,310.62519 L 110.54064,312.74437 L 108.86712,312.74437 L 109.27641,310.62519 M 108.51241,314.5907 L 110.18593,314.5907 L 108.19408,324.77734 L 106.52056,324.77734 L 108.51241,314.5907 M 120.34529,314.89084 L 120.02695,316.47341 C 119.58431,316.23088 119.11742,316.04898 118.62629,315.9277 C 118.13514,315.80644 117.62884,315.7458 117.10739,315.74579 C 116.22818,315.7458 115.53391,315.89739 115.02458,316.20055 C 114.52131,316.49767 114.26968,316.90393 114.26968,317.41931 C 114.26968,318.0196 114.85783,318.48043 116.03415,318.80179 C 116.1251,318.82605 116.1918,318.84424 116.23425,318.85636 L 116.77087,319.02007 C 117.88654,319.32931 118.62931,319.65371 118.99919,319.99326 C 119.37512,320.33282 119.56309,320.79667 119.5631,321.38483 C 119.56309,322.46413 119.13258,323.34333 118.27158,324.02244 C 117.41662,324.70155 116.29488,325.0411 114.90635,325.04111 C 114.36669,325.0411 113.79976,324.98957 113.20554,324.88649 C 112.61132,324.78341 111.95646,324.62273 111.24097,324.40444 L 111.5684,322.67635 C 112.18081,322.99165 112.78413,323.23116 113.37835,323.39487 C 113.97257,323.55859 114.54253,323.64044 115.08825,323.64044 C 115.90682,323.64044 116.57077,323.4646 117.0801,323.11292 C 117.59549,322.76124 117.85319,322.31557 117.8532,321.77592 C 117.85319,321.19383 117.18014,320.72391 115.83406,320.36616 L 115.66125,320.32069 L 115.08825,320.17516 C 114.23936,319.95082 113.61785,319.65674 113.22373,319.29293 C 112.8296,318.92306 112.63254,318.45314 112.63254,317.88317 C 112.63254,316.79781 113.03879,315.9368 113.8513,315.30013 C 114.66987,314.66347 115.77948,314.34514 117.18015,314.34513 C 117.73192,314.34514 118.26854,314.39062 118.79,314.48156 C 119.31752,314.57252 119.83595,314.70895 120.34529,314.89084 M 128.62193,314.5907 L 128.36727,315.89132 L 125.02932,315.89132 L 123.94699,321.42121 C 123.91061,321.62737 123.88332,321.80018 123.86514,321.93964 C 123.84694,322.0791 123.83785,322.18824 123.83785,322.26706 C 123.83785,322.65513 123.95305,322.93708 124.18347,323.11292 C 124.41994,323.28876 124.79588,323.37668 125.31127,323.37668 L 127.00299,323.37668 L 126.72103,324.77734 L 125.12028,324.77734 C 124.12586,324.77734 123.38309,324.58331 122.89195,324.19525 C 122.40687,323.80719 122.16433,323.21903 122.16433,322.43078 C 122.16433,322.29132 122.17342,322.13973 122.19162,321.97602 C 122.2098,321.80624 122.23709,321.62131 122.27347,321.42121 L 123.3558,315.89132 L 121.93695,315.89132 L 122.20071,314.5907 L 123.59228,314.5907 L 124.15618,311.69842 L 125.8297,311.69842 L 125.27489,314.5907 L 128.62193,314.5907 M 138.06277,318.9655 L 136.92587,324.77734 L 135.25235,324.77734 L 135.56158,323.23116 C 135.07043,323.83751 134.50956,324.29227 133.87897,324.59544 C 133.25442,324.89255 132.55713,325.0411 131.78707,325.04111 C 130.91999,325.0411 130.20753,324.77734 129.64969,324.24982 C 129.09791,323.71624 128.82203,323.0341 128.82203,322.2034 C 128.82203,321.01496 129.29498,320.07512 130.24088,319.38388 C 131.19284,318.69265 132.50255,318.34703 134.17002,318.34703 L 136.49839,318.34703 L 136.58934,317.90136 C 136.60146,317.85286 136.61056,317.80132 136.61663,317.74674 C 136.62268,317.68611 136.62572,317.59516 136.62572,317.47388 C 136.62572,316.93424 136.4044,316.51586 135.96177,316.21874 C 135.52519,315.91558 134.90975,315.76399 134.11544,315.76398 C 133.56973,315.76399 133.00885,315.83372 132.43283,315.97317 C 131.86286,316.11264 131.2747,316.32183 130.66836,316.60074 L 130.9594,315.05456 C 131.59,314.81809 132.20544,314.64225 132.80573,314.52703 C 133.41207,314.40577 133.9972,314.34514 134.56111,314.34513 C 135.76167,314.34514 136.67422,314.60587 137.29877,315.12732 C 137.92936,315.64879 138.24466,316.40672 138.24467,317.40112 C 138.24466,317.60122 138.2295,317.8377 138.1992,318.11055 C 138.16887,318.37735 138.12339,318.66233 138.06277,318.9655 M 136.25282,319.65674 L 134.5793,319.65674 C 133.20895,319.65674 132.19332,319.84168 131.5324,320.21154 C 130.87754,320.57536 130.55012,321.14229 130.55012,321.91235 C 130.55012,322.44594 130.71686,322.86432 131.05036,323.16749 C 131.38991,323.47067 131.85679,323.62225 132.45102,323.62225 C 133.36054,323.62225 134.15485,323.29786 134.83397,322.64906 C 135.51307,321.99421 135.96176,321.12107 136.18006,320.02964 L 136.25282,319.65674 M 149.85927,318.62898 L 148.66779,324.77734 L 146.98518,324.77734 L 148.17665,318.69264 C 148.23121,318.40767 148.27366,318.15603 148.30399,317.93774 C 148.33429,317.71946 148.34945,317.54665 148.34946,317.41931 C 148.34945,316.90999 148.18877,316.51283 147.86741,316.22784 C 147.54604,315.94287 147.09735,315.80037 146.52132,315.80036 C 145.62392,315.80037 144.85083,316.10052 144.20204,316.70079 C 143.55325,317.29502 143.1288,318.10449 142.92871,319.12921 L 141.81,324.77734 L 140.13648,324.77734 L 142.11014,314.5907 L 143.78366,314.5907 L 143.44714,316.19146 C 143.91402,315.60331 144.47489,315.14855 145.12975,314.82718 C 145.7846,314.50582 146.47281,314.34514 147.19437,314.34513 C 148.09175,314.34514 148.78602,314.58768 149.27717,315.07275 C 149.77437,315.55783 150.02297,316.23998 150.02298,317.11917 C 150.02297,317.33746 150.00781,317.57091 149.97751,317.8195 C 149.95324,318.06811 149.91383,318.33794 149.85927,318.62898 M 161.29195,314.98179 L 160.95543,316.63712 C 160.55523,316.34609 160.12776,316.1278 159.673,315.98227 C 159.2243,315.83675 158.75741,315.76399 158.27234,315.76398 C 157.73875,315.76399 157.22942,315.85798 156.74434,316.04594 C 156.26532,316.23391 155.8621,316.5007 155.53468,316.84631 C 155.01322,317.37384 154.61,317.99232 154.32502,318.70174 C 154.04003,319.41117 153.89754,320.14485 153.89754,320.90278 C 153.89754,321.81837 154.12492,322.50051 154.57968,322.94921 C 155.0405,323.3979 155.7378,323.62225 156.67158,323.62225 C 157.1324,323.62225 157.62051,323.55252 158.13591,323.41306 C 158.65736,323.2736 159.20005,323.06441 159.76396,322.78549 L 159.44562,324.44082 C 158.96054,324.64092 158.4603,324.78947 157.94491,324.88649 C 157.43557,324.98957 156.91108,325.0411 156.37144,325.04111 C 155.01928,325.0411 153.9794,324.70458 153.25178,324.03154 C 152.52416,323.35243 152.16035,322.3853 152.16036,321.13016 C 152.16035,320.07512 152.34832,319.10497 152.72426,318.21969 C 153.10626,317.32837 153.67016,316.52799 154.41597,315.81855 C 154.9253,315.33349 155.52255,314.96665 156.20773,314.71803 C 156.89289,314.46944 157.64173,314.34514 158.45425,314.34513 C 158.92719,314.34514 159.39711,314.39971 159.864,314.50884 C 160.33088,314.61193 160.80687,314.76958 161.29195,314.98179 M 170.5236,318.7745 C 170.54178,318.67749 170.55391,318.57744 170.55998,318.47436 C 170.5721,318.37129 170.57816,318.26821 170.57817,318.16512 C 170.57816,317.42538 170.35988,316.84026 169.92332,316.40974 C 169.4928,315.97925 168.90464,315.76399 168.15884,315.76398 C 167.32814,315.76399 166.59446,316.02775 165.9578,316.55527 C 165.32113,317.07673 164.83909,317.81951 164.51166,318.7836 L 170.5236,318.7745 M 171.97884,320.08421 L 164.19333,320.08421 C 164.15695,320.31463 164.13269,320.49653 164.12057,320.62992 C 164.10844,320.76333 164.10237,320.87853 164.10238,320.97554 C 164.10237,321.81837 164.36007,322.47019 164.87547,322.93101 C 165.39693,323.39184 166.13061,323.62225 167.07651,323.62225 C 167.80412,323.62225 168.49233,323.5404 169.14113,323.37668 C 169.78991,323.21297 170.39323,322.97346 170.95108,322.65816 L 170.63274,324.31349 C 170.03245,324.55603 169.41094,324.73793 168.76822,324.8592 C 168.13155,324.98047 167.48276,325.0411 166.82185,325.04111 C 165.40905,325.0411 164.32066,324.70458 163.55666,324.03154 C 162.79873,323.35243 162.41976,322.39137 162.41976,321.14835 C 162.41976,320.08725 162.60773,319.10193 162.98367,318.19241 C 163.36566,317.27683 163.9235,316.46129 164.65719,315.74579 C 165.13013,315.29711 165.691,314.95149 166.3398,314.70894 C 166.99465,314.46641 167.68892,314.34514 168.42261,314.34513 C 169.57466,314.34514 170.49024,314.69076 171.16936,315.38198 C 171.85452,316.07323 172.19711,317.00094 172.19712,318.16512 C 172.19711,318.44405 172.17892,318.74419 172.14255,319.06555 C 172.10616,319.38085 172.05159,319.72041 171.97884,320.08421 M 187.85908,310.62519 L 187.59532,312.01675 L 185.99456,312.01675 C 185.38821,312.01677 184.94557,312.13804 184.66666,312.38056 C 184.3938,312.61705 184.19067,313.05362 184.05728,313.69027 L 183.87538,314.5907 L 186.63123,314.5907 L 186.38566,315.89132 L 183.62981,315.89132 L 181.90171,324.77734 L 180.2191,324.77734 L 181.95629,315.89132 L 180.35553,315.89132 L 180.592,314.5907 L 182.19276,314.5907 L 182.32919,313.88127 C 182.5596,312.68072 182.96282,311.83789 183.53885,311.3528 C 184.12094,310.86774 185.0335,310.6252 186.27651,310.62519 L 187.85908,310.62519 M 193.80736,316.13689 C 193.63757,316.04594 193.44354,315.97621 193.22526,315.9277 C 193.00697,315.8792 192.77353,315.85494 192.52493,315.85494 C 191.6336,315.85494 190.85444,316.1945 190.18746,316.8736 C 189.52048,317.54665 189.07784,318.45011 188.85956,319.58397 L 187.8318,324.77734 L 186.15828,324.77734 L 188.15013,314.5907 L 189.82365,314.5907 L 189.50532,316.17327 C 189.94795,315.58512 190.47547,315.13339 191.08789,314.81808 C 191.70636,314.50279 192.36424,314.34514 193.06155,314.34513 C 193.24345,314.34514 193.42232,314.35727 193.59817,314.38151 C 193.774,314.39971 193.94984,314.43306 194.12569,314.48156 L 193.80736,316.13689 M 197.9093,325.04111 C 196.71479,325.0411 195.76889,324.67426 195.07159,323.94058 C 194.38035,323.20084 194.03474,322.1943 194.03474,320.92097 C 194.03474,320.18123 194.15297,319.42936 194.38945,318.66536 C 194.63199,317.8953 194.94426,317.24954 195.32626,316.72808 C 195.92654,315.91558 196.59655,315.3153 197.3363,314.92722 C 198.07604,314.53917 198.9128,314.34514 199.84658,314.34513 C 201.0047,314.34514 201.93847,314.70592 202.64791,315.42746 C 203.36339,316.14902 203.72113,317.09189 203.72114,318.25607 C 203.72113,319.06252 203.6029,319.86593 203.36643,320.66631 C 203.12994,321.46669 202.82071,322.13064 202.43872,322.65816 C 201.84449,323.47067 201.17751,324.07095 200.43777,324.45901 C 199.69802,324.84707 198.8552,325.0411 197.9093,325.04111 M 195.77192,320.8664 C 195.77192,321.78805 195.96292,322.47929 196.34492,322.94011 C 196.73298,323.39487 197.31811,323.62225 198.1003,323.62225 C 199.22204,323.62225 200.14975,323.13414 200.88344,322.15792 C 201.62317,321.17564 201.99304,319.93263 201.99305,318.42888 C 201.99304,317.54969 201.79598,316.88573 201.40186,316.43703 C 201.00773,315.98834 200.42867,315.76399 199.66468,315.76398 C 199.03407,315.76399 198.4732,315.91255 197.98206,316.20965 C 197.49092,316.5007 197.05131,316.94637 196.66325,317.54665 C 196.37827,317.99535 196.15695,318.50771 195.9993,319.08374 C 195.84771,319.65977 195.77192,320.25399 195.77192,320.8664 M 221.2931,318.62898 L 220.10162,324.77734 L 218.4281,324.77734 L 219.60139,318.68355 C 219.64988,318.42283 219.68626,318.19848 219.71053,318.0105 C 219.73477,317.82254 219.7469,317.66186 219.74691,317.52846 C 219.7469,316.98275 219.59531,316.55831 219.29215,316.25513 C 218.98896,315.95196 218.56452,315.80037 218.01882,315.80036 C 217.2063,315.80037 216.48172,316.10658 215.84506,316.71898 C 215.20839,317.32534 214.79607,318.11662 214.60811,319.09283 L 213.4894,324.77734 L 211.81588,324.77734 L 213.00736,318.68355 C 213.05585,318.45921 213.09224,318.25305 213.1165,318.06507 C 213.14074,317.87105 213.15287,317.69824 213.15288,317.54665 C 213.15287,316.99488 213.00128,316.5674 212.69812,316.26422 C 212.39494,315.95499 211.97656,315.80037 211.44298,315.80036 C 210.61834,315.80037 209.88769,316.10658 209.25103,316.71898 C 208.61436,317.32534 208.20205,318.11662 208.01408,319.09283 L 206.89537,324.77734 L 205.22185,324.77734 L 207.2137,314.5907 L 208.88722,314.5907 L 208.56889,316.17327 C 209.02365,315.57906 209.5542,315.12733 210.16055,314.81808 C 210.77296,314.50279 211.42781,314.34514 212.12512,314.34513 C 212.86486,314.34514 213.4712,314.53917 213.94416,314.92722 C 214.42317,315.3153 214.71118,315.85494 214.80821,316.54617 C 215.31753,315.83069 215.90569,315.28498 216.57268,314.90903 C 217.24571,314.53311 217.95514,314.34514 218.70096,314.34513 C 219.57409,314.34514 220.24713,314.59677 220.7201,315.10003 C 221.1991,315.60331 221.4386,316.31577 221.43862,317.23741 C 221.4386,317.43751 221.42648,317.65883 221.40224,317.90136 C 221.37797,318.13784 221.34159,318.38038 221.2931,318.62898 M 241.59362,312.24413 L 241.22072,314.18142 C 240.63861,313.59327 240.02014,313.1567 239.3653,312.8717 C 238.71649,312.58673 238.01313,312.44424 237.25521,312.44423 C 236.21834,312.44424 235.30579,312.69284 234.51755,313.19004 C 233.73535,313.68725 233.05927,314.44519 232.48931,315.46384 C 232.1255,316.11871 231.84658,316.81297 231.65255,317.54665 C 231.46458,318.27427 231.3706,319.00795 231.3706,319.74769 C 231.3706,320.98464 231.68893,321.92751 232.3256,322.5763 C 232.96832,323.22509 233.89907,323.54949 235.11783,323.54949 C 235.96065,323.54949 236.77012,323.41609 237.54625,323.1493 C 238.32237,322.87645 239.07727,322.47019 239.81096,321.93054 L 239.38349,324.1043 C 238.66192,324.41354 237.93127,324.64698 237.19154,324.80463 C 236.45785,324.96228 235.72114,325.0411 234.9814,325.04111 C 233.24118,325.0411 231.87993,324.56815 230.89765,323.62225 C 229.92143,322.67635 229.43332,321.36058 229.43332,319.67493 C 229.43332,318.59563 229.61825,317.53453 229.98813,316.4916 C 230.36406,315.44869 230.90068,314.49673 231.59798,313.6357 C 232.33772,312.72013 233.18054,312.04405 234.12645,311.60747 C 235.07841,311.17091 236.18499,310.95263 237.44621,310.95261 C 238.22232,310.95263 238.956,311.06177 239.64725,311.28004 C 240.34454,311.49228 240.99333,311.81364 241.59362,312.24413 M 244.82243,311.19818 L 249.51556,311.19818 C 250.78888,311.1982 251.74085,311.43467 252.37146,311.90761 C 253.00205,312.38058 253.31735,313.09303 253.31736,314.04499 C 253.31735,314.91814 253.04449,315.67304 252.49879,316.3097 C 251.95913,316.94031 251.24971,317.3223 250.37051,317.45569 C 251.12237,317.62548 251.68628,317.94987 252.06222,318.42888 C 252.43815,318.9079 252.62611,319.5476 252.62613,320.34797 C 252.62611,321.71226 252.11981,322.79156 251.10722,323.58587 C 250.10068,324.38019 248.72124,324.77734 246.9689,324.77734 L 242.17572,324.77734 L 244.82243,311.19818 M 245.26809,318.29245 L 244.304,323.26754 L 247.25995,323.26754 C 248.36956,323.26754 249.22451,323.01287 249.8248,322.50354 C 250.42507,321.99421 250.72522,321.27569 250.72522,320.34797 C 250.72522,319.63249 250.52512,319.11103 250.12494,318.7836 C 249.73081,318.45617 249.09414,318.29246 248.21494,318.29245 L 245.26809,318.29245 M 246.35043,312.70799 L 245.55005,316.80084 L 248.28771,316.80084 C 249.26392,316.80085 250.02488,316.58862 250.57061,316.16417 C 251.12237,315.73974 251.39826,315.15158 251.39827,314.3997 C 251.39826,313.81155 251.21333,313.38408 250.84346,313.11728 C 250.47358,312.84443 249.88239,312.708 249.0699,312.70799 L 246.35043,312.70799 M 257.59211,311.19818 L 261.53944,311.19818 C 263.63739,311.1982 265.21996,311.64386 266.28714,312.53518 C 267.36036,313.42046 267.89698,314.73927 267.89699,316.4916 C 267.89698,317.64973 267.69385,318.76541 267.28761,319.83864 C 266.88135,320.90582 266.32048,321.80624 265.605,322.53992 C 264.88343,323.29179 263.96785,323.85266 262.85824,324.22254 C 261.74862,324.59241 260.43588,324.77734 258.92001,324.77734 L 254.9454,324.77734 L 257.59211,311.19818 M 259.1383,312.70799 L 257.09188,323.26754 L 259.49301,323.26754 C 261.54852,323.26754 263.14019,322.67635 264.268,321.49397 C 265.3958,320.3116 265.9597,318.64414 265.95971,316.4916 C 265.9597,315.18796 265.59589,314.23297 264.86829,313.62661 C 264.14066,313.01421 263.00073,312.708 261.44848,312.70799 L 259.1383,312.70799"
       style="font-size:18.62700462px;font-style:italic;font-weight:normal;fill:#000000;fill-opacity:1;stroke:none;stroke-width:1px;stroke-linecap:butt;stroke-linejoin:miter;stroke-opacity:1;font-family:Bitstream Vera Sans"
       id="text6138" />
    <path
       d="M 84.102852,318.87149 L 28.284271,318.87149"
       style="fill:none;fill-opacity:0.75;fill-rule:evenodd;stroke:#000000;stroke-width:1px;stroke-linecap:butt;stroke-linejoin:miter;stroke-opacity:1"
       id="path6142" />
    <path
       d="M 28.177134,315.87163 L 28.069997,322.40702 L 22.169371,319.00029 L 28.177134,315.87163 z "
       style="fill:#000000;fill-opacity:1;fill-rule:evenodd;stroke:#000000;stroke-width:1px;stroke-linecap:butt;stroke-linejoin:miter;stroke-opacity:1"
       id="path6144" />
  </g>
  <g
     style="display:inline"
     id="layer3">
    <path
       d="M -1.7141983,343.72736 L 796.24509,343.72736"
       style="fill:none;fill-opacity:0.75;fill-rule:evenodd;stroke:#000000;stroke-width:1px;stroke-linecap:butt;stroke-linejoin:miter;stroke-opacity:1"
       id="path2228" />
    <path
       d="M 366.83843,343.72736 L 366.83843,48.88526"
       style="fill:none;fill-opacity:0.75;fill-rule:evenodd;stroke:#000000;stroke-width:1px;stroke-linecap:butt;stroke-linejoin:miter;stroke-opacity:1"
       id="path2230" />
    <path
       d="M -277.2543,353.85638 C -276.56805,353.85638 -275.94183,353.69339 -275.37565,353.36741 C -274.8095,353.04144 -274.32053,351.84047 -273.90875,349.76452 L -271.66981,350.38216 C -272.15022,352.80125 -272.90511,354.31961 -273.93449,354.93725 C -274.94675,355.53773 -276.21634,355.83797 -277.74326,355.83797 C -278.85846,355.83797 -279.65624,355.67498 -280.13662,355.349 C -280.61702,355.00587 -281.01162,354.69705 -281.32043,354.42255 C -282.55571,355.36616 -284.05692,355.83797 -285.82404,355.83797 C -286.97355,355.83797 -287.88285,355.59778 -288.55195,355.11739 C -289.20391,354.637 -289.4441,353.97647 -289.27253,353.1358 C -289.10097,352.20934 -288.59485,351.50592 -287.75417,351.02553 C -286.9135,350.52799 -285.99562,350.27922 -285.00053,350.27922 C -283.97114,350.27922 -283.19051,350.44221 -282.65864,350.76818 C -282.1268,351.077 -281.69788,351.35151 -281.3719,351.5917 C -281.25181,351.3172 -281.16603,351.04269 -281.11455,350.76818 C -280.87437,349.58438 -280.84005,348.64934 -281.01161,347.96307 C -281.16603,347.25966 -281.31186,346.68491 -281.4491,346.23883 L -285.36081,346.23883 L -285.052,344.66899 L -282.041,344.66899 C -282.40131,343.7597 -282.47851,342.7732 -282.27262,341.70947 C -281.98097,340.28549 -281.32044,339.06737 -280.29103,338.05511 C -279.26164,337.02573 -277.83764,336.51103 -276.01902,336.51101 C -274.50926,336.51103 -273.39408,336.88847 -272.67348,337.64335 C -271.95292,338.3811 -271.68699,339.24751 -271.87569,340.24258 L -274.26904,340.24258 C -274.16612,339.7279 -274.27764,339.31614 -274.6036,339.0073 C -274.91244,338.6985 -275.5215,338.54409 -276.43078,338.54407 C -277.40873,338.54409 -278.18935,338.83575 -278.77266,339.41906 C -279.356,339.98525 -279.75061,340.74872 -279.95647,341.70947 C -280.14521,342.6531 -280.04227,343.63961 -279.64765,344.66899 L -274.96389,344.66899 L -275.27271,346.23883 L -279.10722,346.23883 C -278.96998,346.63344 -278.80699,347.16529 -278.61825,347.83439 C -278.42955,348.50351 -278.45528,349.42997 -278.69546,350.61377 C -278.84988,351.42014 -279.21875,352.20076 -279.80206,352.95565 C -279.54473,353.16154 -279.26164,353.36741 -278.95281,353.57329 C -278.644,353.76202 -278.07783,353.85638 -277.2543,353.85638 M -285.36081,352.05493 C -285.89268,352.05493 -286.28728,352.15787 -286.54462,352.36375 C -286.80198,352.56963 -286.95639,352.82698 -287.00785,353.1358 C -287.09364,353.5304 -287.01644,353.81349 -286.77624,353.98505 C -286.5189,354.13946 -286.09856,354.21667 -285.51522,354.21667 C -284.3829,354.21667 -283.42212,353.87354 -282.63291,353.18727 C -282.94174,352.92992 -283.28487,352.68115 -283.66231,352.44095 C -284.02261,352.18361 -284.58878,352.05493 -285.36081,352.05493 M -255.59833,343.56239 C -255.83853,343.43373 -256.11304,343.33508 -256.42184,343.26644 C -256.73068,343.19782 -257.06094,343.16351 -257.41264,343.1635 C -258.67366,343.16351 -259.77598,343.6439 -260.71958,344.60466 C -261.66321,345.55686 -262.28942,346.83503 -262.59824,348.43917 L -264.05226,355.7865 L -266.41988,355.7865 L -263.6019,341.37492 L -261.23428,341.37492 L -261.68465,343.61386 C -261.05843,342.78178 -260.31212,342.14269 -259.4457,341.6966 C -258.57072,341.25055 -257.63998,341.02751 -256.65346,341.0275 C -256.39612,341.02751 -256.14306,341.04467 -255.89428,341.07897 C -255.64552,341.10472 -255.39675,341.1519 -255.14796,341.22051 L -255.59833,343.56239 M -243.81171,347.29396 C -243.78599,347.15672 -243.76883,347.01517 -243.76024,346.86933 C -243.7431,346.72351 -243.73452,346.57768 -243.73451,346.43184 C -243.73452,345.38529 -244.04334,344.55749 -244.66097,343.94841 C -245.27004,343.33937 -246.10213,343.03484 -247.15726,343.03482 C -248.3325,343.03484 -249.37047,343.40799 -250.27119,344.15429 C -251.17192,344.89204 -251.85389,345.94288 -252.31712,347.30683 L -243.81171,347.29396 M -241.75291,349.14688 L -252.76748,349.14688 C -252.81895,349.47286 -252.85327,349.73021 -252.87042,349.91893 C -252.88758,350.10766 -252.89616,350.27064 -252.89616,350.40789 C -252.89616,351.60028 -252.53158,352.52245 -251.80242,353.1744 C -251.06469,353.82635 -250.02671,354.15233 -248.68849,354.15233 C -247.6591,354.15233 -246.68546,354.03652 -245.76757,353.80491 C -244.8497,353.57329 -243.99616,353.23445 -243.20694,352.78838 L -243.6573,355.13026 C -244.50657,355.47339 -245.38585,355.73074 -246.29514,355.90231 C -247.19587,356.07387 -248.11375,356.15966 -249.04878,356.15966 C -251.04753,356.15966 -252.58734,355.68356 -253.6682,354.73137 C -254.7405,353.7706 -255.27664,352.41093 -255.27664,350.65237 C -255.27664,349.15117 -255.01071,347.7572 -254.47886,346.47044 C -253.93842,345.17513 -253.14922,344.02134 -252.11124,343.00909 C -251.44213,342.37431 -250.64864,341.88534 -249.73075,341.54219 C -248.8043,341.19908 -247.82209,341.02751 -246.7841,341.0275 C -245.15423,341.02751 -243.85891,341.51647 -242.89812,342.49439 C -241.92878,343.47233 -241.44411,344.78481 -241.4441,346.43184 C -241.44411,346.82645 -241.46985,347.25108 -241.5213,347.70572 C -241.57278,348.1518 -241.64999,348.63219 -241.75291,349.14688 M -225.59135,347.08808 L -227.27699,355.7865 L -229.65748,355.7865 L -227.97184,347.17815 C -227.89464,346.77498 -227.8346,346.41898 -227.79169,346.11015 C -227.74881,345.80134 -227.72737,345.55686 -227.72736,345.37671 C -227.72737,344.65614 -227.95469,344.09426 -228.40933,343.69106 C -228.86399,343.2879 -229.49879,343.08631 -230.31372,343.08629 C -231.58332,343.08631 -232.67705,343.51093 -233.59493,344.36017 C -234.51281,345.20086 -235.1133,346.34606 -235.39638,347.79579 L -236.97908,355.7865 L -239.34669,355.7865 L -236.55445,341.37492 L -234.18683,341.37492 L -234.66293,343.63959 C -234.0024,342.80751 -233.20891,342.16414 -232.28244,341.70947 C -231.35599,341.25484 -230.38236,341.02751 -229.36153,341.0275 C -228.09195,341.02751 -227.10973,341.37064 -226.41487,342.05689 C -225.71146,342.74317 -225.35975,343.70823 -225.35974,344.95208 C -225.35975,345.26091 -225.3812,345.59117 -225.42408,345.94287 C -225.4584,346.29459 -225.51416,346.67633 -225.59135,347.08808 M -212.40218,341.37492 L -212.76247,343.21497 L -217.48484,343.21497 L -219.01607,351.0384 C -219.06755,351.33007 -219.10615,351.57455 -219.13188,351.77184 C -219.15762,351.96915 -219.17049,352.12356 -219.17048,352.23507 C -219.17049,352.78409 -219.0075,353.18298 -218.68152,353.43175 C -218.34697,353.68052 -217.81511,353.80491 -217.08595,353.80491 L -214.6926,353.80491 L -215.09149,355.7865 L -217.35617,355.7865 C -218.76302,355.7865 -219.81386,355.51199 -220.5087,354.96298 C -221.19497,354.41397 -221.5381,353.58187 -221.5381,352.46669 C -221.5381,352.26939 -221.52523,352.05493 -221.4995,351.82331 C -221.47376,351.58313 -221.43516,351.32149 -221.38369,351.0384 L -219.85246,343.21497 L -221.85979,343.21497 L -221.48663,341.37492 L -219.5179,341.37492 L -218.72012,337.28306 L -216.3525,337.28306 L -217.13742,341.37492 L -212.40218,341.37492 M -191.73701,346.90794 C -191.73702,345.64693 -192.01153,344.68187 -192.56053,344.01275 C -193.10955,343.34366 -193.89876,343.0091 -194.92814,343.00909 C -195.63158,343.0091 -196.30497,343.18925 -196.94834,343.54952 C -197.58314,343.90982 -198.14931,344.4331 -198.64685,345.11936 C -199.13582,345.79705 -199.52613,346.61628 -199.81779,347.57704 C -200.10946,348.53782 -200.25529,349.49002 -200.25528,350.43363 C -200.25529,351.6346 -199.98078,352.56105 -199.43176,353.213 C -198.88276,353.85638 -198.10213,354.17807 -197.08988,354.17806 C -196.34358,354.17807 -195.65302,354.00221 -195.01822,353.6505 C -194.37485,353.29879 -193.82584,352.78838 -193.37118,352.11927 C -192.88223,351.41585 -192.48762,350.58804 -192.18737,349.63584 C -191.88714,348.68366 -191.73702,347.77435 -191.73701,346.90794 M -199.07147,343.56239 C -198.43668,342.73031 -197.69037,342.0998 -196.83253,341.67087 C -195.96613,341.24197 -195.00536,341.02751 -193.95022,341.0275 C -192.47476,341.02751 -191.32955,341.51219 -190.5146,342.48152 C -189.69967,343.44231 -189.2922,344.79339 -189.29219,346.53478 C -189.2922,347.95879 -189.54526,349.31845 -190.05137,350.61377 C -190.5575,351.90052 -191.28666,353.05431 -192.23884,354.07512 C -192.87365,354.75281 -193.58994,355.2718 -194.38771,355.63209 C -195.1855,355.9838 -196.02618,356.15966 -196.90974,356.15966 C -197.93056,356.15966 -198.7884,355.94949 -199.48323,355.52915 C -200.17808,355.10023 -200.69707,354.46544 -201.0402,353.62476 L -202.51996,361.26805 L -204.88758,361.26805 L -201.01446,341.37492 L -198.64685,341.37492 L -199.07147,343.56239 M -175.40817,347.29396 C -175.38245,347.15672 -175.36529,347.01517 -175.3567,346.86933 C -175.33956,346.72351 -175.33098,346.57768 -175.33097,346.43184 C -175.33098,345.38529 -175.6398,344.55749 -176.25742,343.94841 C -176.8665,343.33937 -177.69859,343.03484 -178.75372,343.03482 C -179.92895,343.03484 -180.96693,343.40799 -181.86765,344.15429 C -182.76838,344.89204 -183.45035,345.94288 -183.91358,347.30683 L -175.40817,347.29396 M -173.34937,349.14688 L -184.36394,349.14688 C -184.41541,349.47286 -184.44973,349.73021 -184.46688,349.91893 C -184.48404,350.10766 -184.49262,350.27064 -184.49261,350.40789 C -184.49262,351.60028 -184.12804,352.52245 -183.39888,353.1744 C -182.66115,353.82635 -181.62317,354.15233 -180.28495,354.15233 C -179.25556,354.15233 -178.28192,354.03652 -177.36403,353.80491 C -176.44616,353.57329 -175.59262,353.23445 -174.8034,352.78838 L -175.25376,355.13026 C -176.10303,355.47339 -176.9823,355.73074 -177.89159,355.90231 C -178.79233,356.07387 -179.71021,356.15966 -180.64524,356.15966 C -182.64399,356.15966 -184.1838,355.68356 -185.26466,354.73137 C -186.33695,353.7706 -186.8731,352.41093 -186.8731,350.65237 C -186.8731,349.15117 -186.60717,347.7572 -186.07531,346.47044 C -185.53488,345.17513 -184.74568,344.02134 -183.7077,343.00909 C -183.03859,342.37431 -182.2451,341.88534 -181.32721,341.54219 C -180.40076,341.19908 -179.41854,341.02751 -178.38056,341.0275 C -176.75069,341.02751 -175.45536,341.51647 -174.49458,342.49439 C -173.52524,343.47233 -173.04057,344.78481 -173.04055,346.43184 C -173.04057,346.82645 -173.0663,347.25108 -173.11776,347.70572 C -173.16924,348.1518 -173.24645,348.63219 -173.34937,349.14688 M -160.1216,343.56239 C -160.36181,343.43373 -160.63631,343.33508 -160.94512,343.26644 C -161.25395,343.19782 -161.58422,343.16351 -161.93592,343.1635 C -163.19694,343.16351 -164.29925,343.6439 -165.24286,344.60466 C -166.18648,345.55686 -166.8127,346.83503 -167.12151,348.43917 L -168.57554,355.7865 L -170.94315,355.7865 L -168.12518,341.37492 L -165.75756,341.37492 L -166.20792,343.61386 C -165.58171,342.78178 -164.8354,342.14269 -163.96898,341.6966 C -163.094,341.25055 -162.16325,341.02751 -161.17674,341.0275 C -160.9194,341.02751 -160.66634,341.04467 -160.41755,341.07897 C -160.16879,341.10472 -159.92002,341.1519 -159.67124,341.22051 L -160.1216,343.56239 M -128.95656,347.08808 L -130.6422,355.7865 L -133.00981,355.7865 L -131.34991,347.16529 C -131.2813,346.79643 -131.22983,346.47903 -131.1955,346.21309 C -131.16121,345.94717 -131.14405,345.71985 -131.14403,345.53111 C -131.14405,344.75908 -131.35851,344.15859 -131.7874,343.72967 C -132.21634,343.30076 -132.81682,343.08631 -133.58885,343.08629 C -134.73836,343.08631 -135.76347,343.51951 -136.66418,344.38591 C -137.56492,345.24375 -138.14824,346.36322 -138.41416,347.74432 L -139.99686,355.7865 L -142.36447,355.7865 L -140.67883,347.16529 C -140.61022,346.8479 -140.55875,346.55623 -140.52442,346.2903 C -140.49012,346.0158 -140.47297,345.77132 -140.47295,345.55685 C -140.47297,344.77623 -140.68742,344.17146 -141.11633,343.74253 C -141.54525,343.30505 -142.13716,343.08631 -142.89204,343.08629 C -144.0587,343.08631 -145.09239,343.51951 -145.9931,344.38591 C -146.89383,345.24375 -147.47716,346.36322 -147.74308,347.74432 L -149.32578,355.7865 L -151.6934,355.7865 L -148.87542,341.37492 L -146.5078,341.37492 L -146.95817,343.61386 C -146.3148,342.7732 -145.56419,342.13411 -144.70636,341.6966 C -143.83995,341.25055 -142.9135,341.02751 -141.92698,341.0275 C -140.88044,341.02751 -140.0226,341.30202 -139.35348,341.85101 C -138.67581,342.40004 -138.26834,343.16351 -138.13107,344.14143 C -137.41051,343.1292 -136.57841,342.35715 -135.63478,341.82528 C -134.6826,341.29344 -133.67894,341.02751 -132.62379,341.0275 C -131.38853,341.02751 -130.43634,341.38351 -129.76721,342.0955 C -129.08954,342.80751 -128.7507,343.81546 -128.75068,345.11936 C -128.7507,345.40245 -128.76786,345.71556 -128.80215,346.05868 C -128.83648,346.39325 -128.88795,346.73638 -128.95656,347.08808 M -118.45668,341.76094 L -123.41067,345.72413 L -117.73611,345.72413 L -118.03206,347.19102 L -125.98416,347.19102 L -125.70108,345.7756 L -120.271,341.40065 C -119.76489,341.00606 -119.38744,340.62433 -119.13866,340.25545 C -118.8899,339.88659 -118.76551,339.53059 -118.7655,339.18745 C -118.76551,338.72423 -118.94566,338.35108 -119.30594,338.06797 C -119.66623,337.77633 -120.14662,337.6305 -120.7471,337.63048 C -121.21891,337.6305 -121.7379,337.70341 -122.30406,337.84923 C -122.87023,337.99508 -123.50932,338.2224 -124.22132,338.5312 L -123.89963,336.9485 C -123.24768,336.70833 -122.63004,336.52818 -122.04671,336.40807 C -121.46339,336.28799 -120.89722,336.22794 -120.3482,336.22792 C -119.29308,336.22794 -118.43954,336.47243 -117.78757,336.96137 C -117.12705,337.45035 -116.79679,338.07657 -116.79678,338.84002 C -116.79679,339.3719 -116.93404,339.88231 -117.20854,340.37125 C -117.48305,340.85165 -117.8991,341.31488 -118.45668,341.76094"
       transform="matrix(0,-1,1,0,0,0)"
       style="font-size:26.35260582px;font-style:italic;font-weight:normal;fill:#000000;fill-opacity:1;stroke:none;stroke-width:1px;stroke-linecap:butt;stroke-linejoin:miter;stroke-opacity:1;font-family:Bitstream Vera Sans"
       id="text2232" />
    <path
       d="M 366.83843,89.168919 L 464.54773,343.72736"
       style="fill:none;fill-opacity:1;fill-rule:evenodd;stroke:#66cc5f;stroke-width:1px;stroke-linecap:butt;stroke-linejoin:miter;stroke-opacity:1"
       id="path2236" />
    <path
       d="M 366.40988,163.73654 L 596.96954,342.87026"
       style="fill:none;fill-opacity:0.75;fill-rule:evenodd;stroke:#ff0000;stroke-width:1px;stroke-linecap:butt;stroke-linejoin:miter;stroke-opacity:1;display:inline"
       id="path3209" />
    <path
       d="M 366.40988,243.44676 L 737.5338,343.72736"
       style="fill:none;fill-opacity:1;fill-rule:evenodd;stroke:#6600ff;stroke-width:1px;stroke-linecap:butt;stroke-linejoin:miter;stroke-opacity:1;display:inline"
       id="path4180" />
    <path
       d="M 410.55048,198.02051 L 410.55048,344.58446"
       style="fill:none;fill-opacity:0.75;fill-rule:evenodd;stroke:#000000;stroke-width:1;stroke-linecap:butt;stroke-linejoin:miter;stroke-miterlimit:4;stroke-dasharray:8, 8;stroke-dashoffset:0;stroke-opacity:1"
       id="path5153" />
    <path
       d="M 523.68757,285.87317 L 524.54467,345.01301"
       style="fill:none;fill-opacity:0.75;fill-rule:evenodd;stroke:#000000;stroke-width:1;stroke-linecap:butt;stroke-linejoin:miter;stroke-miterlimit:4;stroke-dasharray:8, 8;stroke-dashoffset:0;stroke-opacity:1;display:inline"
       id="path6124" />
    <path
       d="M 400.41617,100.16288 L 404.04166,100.16288 C 406.02733,100.1629 407.43927,100.34193 408.2775,100.69999 C 409.12384,101.04994 409.80336,101.63588 410.31607,102.4578 C 410.82875,103.27976 411.0851,104.25225 411.08511,105.37528 C 411.0851,106.55531 410.80027,107.54408 410.23062,108.34159 C 409.66909,109.13099 408.81866,109.72913 407.67935,110.13602 L 411.9274,118.11942 L 408.19205,118.11942 L 404.15152,110.51444 L 403.83414,110.51444 L 403.83414,118.11942 L 400.41617,118.11942 L 400.41617,100.16288 M 403.83414,107.18192 L 404.90836,107.18192 C 405.99884,107.18193 406.74754,107.03952 407.15445,106.75468 C 407.56948,106.46986 407.777,105.99785 407.77701,105.33866 C 407.777,104.94805 407.67527,104.61032 407.47183,104.32548 C 407.26837,104.03252 406.99575,103.825 406.65396,103.70292 C 406.31216,103.57273 405.68553,103.50762 404.77408,103.50761 L 403.83414,103.50761 L 403.83414,107.18192 M 427.62564,112.44315 L 416.92007,112.44315 C 417.07469,113.38717 417.48566,114.13993 418.15298,114.70145 C 418.82843,115.25484 419.68699,115.53153 420.72867,115.53153 C 421.97378,115.53153 423.04392,115.09615 423.93912,114.22538 L 426.74673,115.54374 C 426.04685,116.53658 425.20864,117.27307 424.23209,117.75321 C 423.25551,118.22522 422.09585,118.46122 420.75308,118.46122 C 418.66974,118.46122 416.97297,117.80611 415.66275,116.49589 C 414.35253,115.17753 413.69742,113.52958 413.69742,111.55204 C 413.69742,109.52568 414.34846,107.84518 415.65054,106.51054 C 416.96076,105.16778 418.60057,104.49639 420.56998,104.49638 C 422.66144,104.49639 424.36228,105.16778 425.67252,106.51054 C 426.98272,107.84518 427.63783,109.61113 427.63785,111.80839 L 427.62564,112.44315 M 424.28091,109.81864 C 424.06118,109.07809 423.62579,108.47588 422.97476,108.012 C 422.33185,107.54814 421.58315,107.31621 420.72867,107.3162 C 419.80093,107.31621 418.98713,107.57663 418.28726,108.09745 C 417.8478,108.42298 417.4409,108.99671 417.06656,109.81864 L 424.28091,109.81864 M 430.73843,99.943153 L 434.05875,99.943153 L 434.05875,104.83817 L 436.03629,104.83817 L 436.03629,107.70683 L 434.05875,107.70683 L 434.05875,118.11942 L 430.73843,118.11942 L 430.73843,107.70683 L 429.02945,107.70683 L 429.02945,104.83817 L 430.73843,104.83817 L 430.73843,99.943153 M 447.66959,104.83817 L 450.9899,104.83817 L 450.9899,118.11942 L 447.66959,118.11942 L 447.66959,116.71561 C 447.01853,117.3341 446.36342,117.7817 445.70425,118.05839 C 445.0532,118.32694 444.3452,118.46122 443.58023,118.46122 C 441.8631,118.46122 440.37792,117.79797 439.12466,116.47147 C 437.87141,115.13684 437.24478,113.48076 437.24478,111.50321 C 437.24478,109.45244 437.85106,107.77194 439.06363,106.46171 C 440.27619,105.1515 441.74917,104.49639 443.48257,104.49638 C 444.28009,104.49639 445.02879,104.64694 445.72867,104.94804 C 446.42853,105.24916 447.0755,105.70082 447.66959,106.30302 L 447.66959,104.83817 M 444.16617,107.57255 C 443.13263,107.57256 442.27407,107.93877 441.59048,108.67118 C 440.90689,109.39547 440.56509,110.32728 440.56509,111.46659 C 440.56509,112.61406 440.91096,113.55807 441.60269,114.29862 C 442.30256,115.03919 443.16112,115.40946 444.17838,115.40946 C 445.22817,115.40946 446.09894,115.04732 446.79068,114.32304 C 447.4824,113.59062 447.82827,112.6344 447.82828,111.45438 C 447.82827,110.29879 447.4824,109.36292 446.79068,108.64677 C 446.09894,107.93063 445.2241,107.57256 444.16617,107.57255 M 455.66519,99.369423 C 456.25113,99.369442 456.75161,99.58103 457.16666,100.00419 C 457.58983,100.42738 457.80142,100.94008 457.80142,101.54227 C 457.80142,102.13637 457.5939,102.64499 457.17886,103.06815 C 456.76382,103.48321 456.2674,103.69073 455.68961,103.69071 C 455.09553,103.69073 454.5869,103.47914 454.16373,103.05595 C 453.74869,102.62465 453.54117,102.10381 453.54117,101.49345 C 453.54117,100.90753 453.74869,100.40704 454.16373,99.991982 C 454.57876,99.576961 455.07925,99.369442 455.66519,99.369423 M 453.99283,104.83817 L 457.33755,104.83817 L 457.33755,118.11942 L 453.99283,118.11942 L 453.99283,104.83817 M 460.01089,99.71122 L 463.34341,99.71122 L 463.34341,118.11942 L 460.01089,118.11942 L 460.01089,99.71122"
       style="font-size:25px"
       id="text6126" />
    <path
       d="M 454.61832,181.77817 L 457.96304,181.77817 L 462.11343,194.30258 L 466.32486,181.77817 L 469.62076,181.77817 L 472.6481,199.73471 L 469.3522,199.73471 L 467.42349,188.39438 L 463.60269,199.73471 L 460.58755,199.73471 L 456.81558,188.39438 L 454.85025,199.73471 L 451.51773,199.73471 L 454.61832,181.77817 M 484.84293,186.45346 L 488.16324,186.45346 L 488.16324,199.73471 L 484.84293,199.73471 L 484.84293,198.3309 C 484.19187,198.94939 483.53676,199.39698 482.87759,199.67368 C 482.22654,199.94223 481.51854,200.07651 480.75357,200.07651 C 479.03644,200.07651 477.55126,199.41326 476.298,198.08676 C 475.04475,196.75213 474.41812,195.09604 474.41812,193.1185 C 474.41812,191.06773 475.0244,189.38723 476.23697,188.077 C 477.44953,186.76679 478.92251,186.11168 480.65591,186.11166 C 481.45343,186.11168 482.20213,186.26223 482.90201,186.56332 C 483.60187,186.86444 484.24884,187.3161 484.84293,187.9183 L 484.84293,186.45346 M 481.33951,189.18784 C 480.30597,189.18785 479.44741,189.55406 478.76382,190.28647 C 478.08023,191.01076 477.73843,191.94256 477.73843,193.08188 C 477.73843,194.22935 478.08429,195.17335 478.77603,195.91391 C 479.4759,196.65447 480.33446,197.02475 481.35172,197.02475 C 482.40151,197.02475 483.27228,196.66261 483.96402,195.93832 C 484.65574,195.20591 485.00161,194.24969 485.00162,193.06967 C 485.00161,191.91408 484.65574,190.97821 483.96402,190.26205 C 483.27228,189.54592 482.39744,189.18785 481.33951,189.18784 M 491.53238,186.45346 L 494.85269,186.45346 L 494.85269,187.80844 C 495.60952,187.17369 496.29311,186.73424 496.90347,186.49008 C 497.52195,186.23782 498.15265,186.11168 498.79556,186.11166 C 500.11391,186.11168 501.23289,186.57148 502.1525,187.49106 C 502.9256,188.27232 503.31215,189.42792 503.31216,190.95786 L 503.31216,199.73471 L 500.01627,199.73471 L 500.01627,193.91196 C 500.01626,192.32505 499.94301,191.27118 499.79654,190.75034 C 499.65818,190.22951 499.40997,189.83482 499.05191,189.56625 C 498.70197,189.28957 498.26658,189.15123 497.74576,189.15121 C 497.0703,189.15123 496.48843,189.37909 496.00015,189.83481 C 495.52,190.28241 495.18635,190.90497 494.99918,191.70248 C 494.90151,192.11753 494.85269,193.01678 494.85269,194.40024 L 494.85269,199.73471 L 491.53238,199.73471 L 491.53238,186.45346 M 506.51041,186.45346 L 509.87955,186.45346 L 509.87955,192.84995 C 509.87954,194.09507 509.96499,194.96177 510.13589,195.45004 C 510.30679,195.93019 510.57941,196.30454 510.95377,196.57309 C 511.33625,196.84165 511.80418,196.97592 512.35757,196.97592 C 512.91095,196.97592 513.37889,196.84572 513.76138,196.5853 C 514.152,196.31675 514.4409,195.92612 514.62808,195.41342 C 514.76642,195.03094 514.83559,194.21307 514.8356,192.95981 L 514.8356,186.45346 L 518.18033,186.45346 L 518.18033,192.0809 C 518.18032,194.40024 517.99721,195.98716 517.63101,196.84164 C 517.18341,197.88331 516.52423,198.68491 515.65347,199.24643 C 514.78269,199.79981 513.67593,200.07651 512.33316,200.07651 C 510.87645,200.07651 509.69644,199.75099 508.79312,199.09995 C 507.89794,198.4489 507.26724,197.54152 506.90103,196.37778 C 506.64061,195.57212 506.5104,194.10727 506.51041,191.98325 L 506.51041,186.45346 M 519.92593,186.45346 L 521.11002,186.45346 C 521.11815,184.71194 521.14664,183.68248 521.19547,183.36508 C 521.28498,182.63268 521.59016,182.05488 522.11099,181.63168 C 522.63996,181.20039 523.38459,180.98473 524.34488,180.98471 C 525.03661,180.98473 525.81785,181.14342 526.68863,181.46078 L 526.68863,183.99985 C 526.20848,183.86152 525.81379,183.79234 525.50455,183.79233 C 525.11392,183.79234 524.82909,183.87372 524.65005,184.03647 C 524.51984,184.15855 524.45474,184.41083 524.45474,184.7933 L 524.44254,186.45346 L 526.55435,186.45346 L 526.55435,189.28549 L 524.44254,189.28549 L 524.44254,199.73471 L 521.11002,199.73471 L 521.11002,189.28549 L 519.92593,189.28549 L 519.92593,186.45346 M 538.30972,186.45346 L 541.63004,186.45346 L 541.63004,199.73471 L 538.30972,199.73471 L 538.30972,198.3309 C 537.65867,198.94939 537.00356,199.39698 536.34439,199.67368 C 535.69334,199.94223 534.98533,200.07651 534.22037,200.07651 C 532.50324,200.07651 531.01805,199.41326 529.7648,198.08676 C 528.51154,196.75213 527.88492,195.09604 527.88492,193.1185 C 527.88492,191.06773 528.4912,189.38723 529.70377,188.077 C 530.91633,186.76679 532.38931,186.11168 534.12271,186.11166 C 534.92023,186.11168 535.66893,186.26223 536.3688,186.56332 C 537.06866,186.86444 537.71564,187.3161 538.30972,187.9183 L 538.30972,186.45346 M 534.8063,189.18784 C 533.77277,189.18785 532.91421,189.55406 532.23062,190.28647 C 531.54702,191.01076 531.20523,191.94256 531.20523,193.08188 C 531.20523,194.22935 531.55109,195.17335 532.24283,195.91391 C 532.94269,196.65447 533.80125,197.02475 534.81851,197.02475 C 535.86831,197.02475 536.73907,196.66261 537.43082,195.93832 C 538.12254,195.20591 538.4684,194.24969 538.46841,193.06967 C 538.4684,191.91408 538.12254,190.97821 537.43082,190.26205 C 536.73907,189.54592 535.86424,189.18785 534.8063,189.18784 M 557.99966,189.13901 L 555.22867,190.66489 C 554.70782,190.11965 554.19106,189.74123 553.67838,189.52963 C 553.17381,189.31805 552.57973,189.21226 551.89615,189.21225 C 550.65102,189.21226 549.64191,189.58661 548.8688,190.3353 C 548.10383,191.07587 547.72134,192.02801 547.72134,193.19174 C 547.72134,194.32293 548.09162,195.2466 548.83218,195.96274 C 549.57274,196.67889 550.54523,197.03696 551.74966,197.03696 C 553.23891,197.03696 554.39858,196.52833 555.22867,195.51108 L 557.85318,197.30551 C 556.42901,199.15284 554.41892,200.07651 551.82291,200.07651 C 549.48729,200.07651 547.65624,199.38478 546.32974,198.00131 C 545.01138,196.61785 544.3522,194.99839 544.3522,193.14291 C 544.3522,191.85711 544.67365,190.67303 545.31656,189.59067 C 545.95946,188.50832 546.85464,187.6579 548.00211,187.0394 C 549.1577,186.42092 550.44757,186.11168 551.87173,186.11166 C 553.19008,186.11168 554.37416,186.37616 555.42398,186.90512 C 556.47377,187.42597 557.33233,188.17059 557.99966,189.13901 M 561.41763,181.55844 L 564.73795,181.55844 L 564.73795,186.45346 L 566.71548,186.45346 L 566.71548,189.32211 L 564.73795,189.32211 L 564.73795,199.73471 L 561.41763,199.73471 L 561.41763,189.32211 L 559.70865,189.32211 L 559.70865,186.45346 L 561.41763,186.45346 L 561.41763,181.55844 M 568.52213,186.45346 L 571.89127,186.45346 L 571.89127,192.84995 C 571.89126,194.09507 571.97671,194.96177 572.14761,195.45004 C 572.31851,195.93019 572.59113,196.30454 572.96548,196.57309 C 573.34797,196.84165 573.8159,196.97592 574.36929,196.97592 C 574.92267,196.97592 575.39061,196.84572 575.7731,196.5853 C 576.16372,196.31675 576.45262,195.92612 576.6398,195.41342 C 576.77814,195.03094 576.84731,194.21307 576.84732,192.95981 L 576.84732,186.45346 L 580.19205,186.45346 L 580.19205,192.0809 C 580.19203,194.40024 580.00893,195.98716 579.64273,196.84164 C 579.19513,197.88331 578.53595,198.68491 577.66519,199.24643 C 576.79441,199.79981 575.68764,200.07651 574.34488,200.07651 C 572.88817,200.07651 571.70816,199.75099 570.80484,199.09995 C 569.90965,198.4489 569.27896,197.54152 568.91275,196.37778 C 568.65233,195.57212 568.52212,194.10727 568.52213,191.98325 L 568.52213,186.45346 M 582.74332,186.45346 L 585.59976,186.45346 L 585.59976,188.12582 C 585.909,187.46666 586.31997,186.96617 586.83267,186.62436 C 587.34536,186.28258 587.90688,186.11168 588.51724,186.11166 C 588.94855,186.11168 589.40021,186.22561 589.87222,186.45346 L 588.83463,189.32211 C 588.44399,189.12681 588.12254,189.02915 587.87027,189.02914 C 587.35757,189.02915 586.92219,189.34654 586.56412,189.98129 C 586.21418,190.61607 586.03921,191.86118 586.03922,193.71664 L 586.05142,194.36362 L 586.05142,199.73471 L 582.74332,199.73471 L 582.74332,186.45346 M 592.83853,180.98471 C 593.42447,180.98473 593.92495,181.19632 594.34,181.61948 C 594.76317,182.04267 594.97476,182.55537 594.97476,183.15756 C 594.97476,183.75165 594.76724,184.26028 594.3522,184.68344 C 593.93716,185.09849 593.44074,185.30601 592.86295,185.306 C 592.26887,185.30601 591.76024,185.09443 591.33707,184.67123 C 590.92203,184.23993 590.71451,183.7191 590.71451,183.10873 C 590.71451,182.52281 590.92203,182.02233 591.33707,181.60727 C 591.7521,181.19225 592.25259,180.98473 592.83853,180.98471 M 591.16617,186.45346 L 594.51089,186.45346 L 594.51089,199.73471 L 591.16617,199.73471 L 591.16617,186.45346 M 597.53824,186.45346 L 600.85855,186.45346 L 600.85855,187.80844 C 601.61538,187.17369 602.29897,186.73424 602.90933,186.49008 C 603.52781,186.23782 604.15851,186.11168 604.80142,186.11166 C 606.11977,186.11168 607.23875,186.57148 608.15836,187.49106 C 608.93145,188.27232 609.31801,189.42792 609.31802,190.95786 L 609.31802,199.73471 L 606.02213,199.73471 L 606.02213,193.91196 C 606.02212,192.32505 605.94887,191.27118 605.8024,190.75034 C 605.66404,190.22951 605.41583,189.83482 605.05777,189.56625 C 604.70783,189.28957 604.27244,189.15123 603.75162,189.15121 C 603.07615,189.15123 602.49429,189.37909 602.00601,189.83481 C 601.52586,190.28241 601.1922,190.90497 601.00504,191.70248 C 600.90737,192.11753 600.85855,193.01678 600.85855,194.40024 L 600.85855,199.73471 L 597.53824,199.73471 L 597.53824,186.45346 M 622.34293,186.45346 L 625.66324,186.45346 L 625.66324,197.83041 C 625.66322,200.07651 625.21156,201.72852 624.30826,202.78647 C 623.09568,204.21876 621.2687,204.9349 618.8273,204.93491 C 617.52521,204.9349 616.43065,204.77214 615.54361,204.44662 C 614.65656,204.1211 613.90786,203.64096 613.29752,203.0062 C 612.68716,202.37956 612.2355,201.61459 611.94254,200.71127 L 615.61685,200.71127 C 615.94237,201.08562 616.36148,201.36638 616.87418,201.55356 C 617.38686,201.74887 617.99315,201.84652 618.69302,201.84653 C 619.5882,201.84652 620.30841,201.70818 620.85367,201.43149 C 621.39891,201.15479 621.78139,200.79672 622.00113,200.35727 C 622.22898,199.91782 622.34291,199.16098 622.34293,198.08676 C 621.75698,198.6727 621.14256,199.09588 620.49966,199.35629 C 619.85675,199.60857 619.1284,199.73471 618.31461,199.73471 C 616.53237,199.73471 615.02684,199.09181 613.798,197.806 C 612.56916,196.5202 611.95474,194.89259 611.95474,192.92319 C 611.95474,190.81545 612.60578,189.12274 613.90787,187.84506 C 615.08788,186.68948 616.49575,186.11168 618.1315,186.11166 C 618.89647,186.11168 619.61668,186.25409 620.29214,186.53891 C 620.97573,186.81562 621.65932,187.27541 622.34293,187.9183 L 622.34293,186.45346 M 618.88834,189.22446 C 617.83852,189.22447 616.97183,189.57847 616.28824,190.28647 C 615.60464,190.98635 615.26284,191.86932 615.26285,192.93539 C 615.26284,194.04217 615.61278,194.94956 616.31265,195.65756 C 617.01252,196.36557 617.89142,196.71958 618.94937,196.71957 C 619.98289,196.71958 620.83331,196.37371 621.50064,195.68198 C 622.17609,194.99025 622.51381,194.08286 622.51382,192.95981 C 622.51381,191.85305 622.17609,190.95379 621.50064,190.26205 C 620.82518,189.57033 619.95441,189.22447 618.88834,189.22446"
       style="font-size:25px;fill:#ff0000;font-family:Century Gothic"
       id="text6130" />
    <path
       d="M 578.2533,266.63098 L 581.87878,266.63098 C 583.86445,266.631 585.2764,266.81004 586.11462,267.16809 C 586.96097,267.51804 587.64049,268.10398 588.1532,268.9259 C 588.66588,269.74786 588.92223,270.72035 588.92224,271.84338 C 588.92223,273.02341 588.6374,274.01218 588.06775,274.80969 C 587.50621,275.59909 586.65579,276.19723 585.51648,276.60413 L 589.76453,284.58752 L 586.02917,284.58752 L 581.98865,276.98254 L 581.67126,276.98254 L 581.67126,284.58752 L 578.2533,284.58752 L 578.2533,266.63098 M 581.67126,273.65002 L 582.74548,273.65002 C 583.83597,273.65004 584.58467,273.50762 584.99158,273.22278 C 585.40661,272.93796 585.61413,272.46595 585.61414,271.80676 C 585.61413,271.41615 585.5124,271.07842 585.30896,270.79358 C 585.1055,270.50062 584.83288,270.29311 584.49109,270.17102 C 584.14928,270.04083 583.52266,269.97572 582.61121,269.97571 L 581.67126,269.97571 L 581.67126,273.65002 M 605.46277,278.91125 L 594.7572,278.91125 C 594.91182,279.85527 595.32279,280.60804 595.99011,281.16956 C 596.66556,281.72294 597.52412,281.99964 598.5658,281.99963 C 599.8109,281.99964 600.88105,281.56425 601.77625,280.69348 L 604.58386,282.01184 C 603.88398,283.00468 603.04576,283.74117 602.06921,284.22131 C 601.09264,284.69332 599.93297,284.92932 598.59021,284.92932 C 596.50687,284.92932 594.81009,284.27421 593.49988,282.96399 C 592.18965,281.64563 591.53454,279.99769 591.53455,278.02014 C 591.53454,275.99378 592.18559,274.31328 593.48767,272.97864 C 594.79789,271.63588 596.4377,270.96449 598.4071,270.96448 C 600.49857,270.96449 602.19941,271.63588 603.50964,272.97864 C 604.81985,274.31328 605.47496,276.07923 605.47498,278.27649 L 605.46277,278.91125 M 602.11804,276.28674 C 601.8983,275.54619 601.46292,274.94398 600.81189,274.4801 C 600.16898,274.01625 599.42028,273.78431 598.5658,273.7843 C 597.63805,273.78431 596.82425,274.04473 596.12439,274.56555 C 595.68493,274.89108 595.27803,275.46481 594.90369,276.28674 L 602.11804,276.28674 M 616.30261,273.16174 L 614.23962,275.22473 C 613.4014,274.39466 612.6405,273.97962 611.95691,273.97961 C 611.58256,273.97962 611.28959,274.061 611.078,274.22375 C 610.86641,274.37839 610.76062,274.5737 610.76062,274.80969 C 610.76062,274.98874 610.82572,275.15557 610.95593,275.31018 C 611.09427,275.45667 611.42793,275.66012 611.95691,275.92053 L 613.17761,276.53088 C 614.46341,277.16566 615.34639,277.81263 615.82654,278.4718 C 616.30667,279.13099 616.54674,279.9041 616.54675,280.79114 C 616.54674,281.97115 616.11136,282.95585 615.2406,283.74524 C 614.37796,284.53463 613.2183,284.92932 611.7616,284.92932 C 609.82474,284.92932 608.27852,284.17249 607.12292,282.65881 L 609.17371,280.42493 C 609.56433,280.88066 610.02006,281.25094 610.54089,281.53577 C 611.06986,281.81246 611.5378,281.95081 611.9447,281.95081 C 612.38415,281.95081 612.73815,281.84501 613.00671,281.63342 C 613.27526,281.42184 613.40954,281.1777 613.40955,280.901 C 613.40954,280.38831 612.92533,279.88782 611.95691,279.39954 L 610.83386,278.83801 C 608.68542,277.75566 607.6112,276.40068 607.61121,274.77307 C 607.6112,273.72328 608.01404,272.8281 608.8197,272.08752 C 609.6335,271.33884 610.6711,270.96449 611.9325,270.96448 C 612.79512,270.96449 613.60485,271.15573 614.36169,271.53821 C 615.12666,271.91257 615.77363,272.45375 616.30261,273.16174 M 620.46521,265.83752 C 621.05114,265.83754 621.55163,266.04913 621.96667,266.47229 C 622.38985,266.89548 622.60144,267.40818 622.60144,268.01038 C 622.60144,268.60447 622.39392,269.11309 621.97888,269.53625 C 621.56384,269.95131 621.06742,270.15883 620.48962,270.15881 C 619.89555,270.15883 619.38692,269.94724 618.96375,269.52405 C 618.5487,269.09275 618.34119,268.57192 618.34119,267.96155 C 618.34119,267.37563 618.5487,266.87514 618.96375,266.46008 C 619.37878,266.04506 619.87927,265.83754 620.46521,265.83752 M 618.79285,271.30627 L 622.13757,271.30627 L 622.13757,284.58752 L 618.79285,284.58752 L 618.79285,271.30627 M 634.97937,266.17932 L 638.29968,266.17932 L 638.29968,284.58752 L 634.97937,284.58752 L 634.97937,283.18372 C 634.32832,283.80221 633.67321,284.2498 633.01404,284.52649 C 632.36299,284.79504 631.65498,284.92932 630.89001,284.92932 C 629.17289,284.92932 627.6877,284.26607 626.43445,282.93958 C 625.18119,281.60494 624.55456,279.94886 624.55457,277.97131 C 624.55456,275.92054 625.16085,274.24004 626.37341,272.92981 C 627.58597,271.6196 629.05895,270.96449 630.79236,270.96448 C 631.58988,270.96449 632.33857,271.11504 633.03845,271.41614 C 633.73831,271.71726 634.38528,272.16892 634.97937,272.77112 L 634.97937,266.17932 M 631.47595,274.04065 C 630.44242,274.04066 629.58386,274.40687 628.90027,275.13928 C 628.21667,275.86357 627.87487,276.79538 627.87488,277.93469 C 627.87487,279.08216 628.22074,280.02617 628.91248,280.76672 C 629.61234,281.50729 630.4709,281.87757 631.48816,281.87756 C 632.53795,281.87757 633.40872,281.51542 634.10046,280.79114 C 634.79218,280.05872 635.13805,279.1025 635.13806,277.92249 C 635.13805,276.76689 634.79218,275.83102 634.10046,275.11487 C 633.40872,274.39873 632.53389,274.04066 631.47595,274.04065 M 654.97449,278.91125 L 644.26892,278.91125 C 644.42354,279.85527 644.83451,280.60804 645.50183,281.16956 C 646.17728,281.72294 647.03584,281.99964 648.07751,281.99963 C 649.32262,281.99964 650.39277,281.56425 651.28796,280.69348 L 654.09558,282.01184 C 653.3957,283.00468 652.55748,283.74117 651.58093,284.22131 C 650.60436,284.69332 649.44469,284.92932 648.10193,284.92932 C 646.01859,284.92932 644.32181,284.27421 643.0116,282.96399 C 641.70137,281.64563 641.04626,279.99769 641.04626,278.02014 C 641.04626,275.99378 641.6973,274.31328 642.99939,272.97864 C 644.30961,271.63588 645.94942,270.96449 647.91882,270.96448 C 650.01028,270.96449 651.71113,271.63588 653.02136,272.97864 C 654.33157,274.31328 654.98668,276.07923 654.98669,278.27649 L 654.97449,278.91125 M 651.62976,276.28674 C 651.41002,275.54619 650.97464,274.94398 650.32361,274.4801 C 649.6807,274.01625 648.932,273.78431 648.07751,273.7843 C 647.14977,273.78431 646.33597,274.04473 645.63611,274.56555 C 645.19665,274.89108 644.78975,275.46481 644.41541,276.28674 L 651.62976,276.28674 M 657.68445,271.30627 L 661.00476,271.30627 L 661.00476,272.66125 C 661.76159,272.0265 662.44518,271.58705 663.05554,271.3429 C 663.67402,271.09063 664.30472,270.96449 664.94763,270.96448 C 666.26598,270.96449 667.38496,271.42429 668.30457,272.34387 C 669.07766,273.12513 669.46422,274.28073 669.46423,275.81067 L 669.46423,284.58752 L 666.16833,284.58752 L 666.16833,278.76477 C 666.16832,277.17786 666.09508,276.12399 665.94861,275.60315 C 665.81025,275.08233 665.56204,274.68763 665.20398,274.41907 C 664.85404,274.14239 664.41865,274.00404 663.89783,274.00403 C 663.22236,274.00404 662.6405,274.2319 662.15222,274.68762 C 661.67207,275.13522 661.33841,275.75778 661.15125,276.5553 C 661.05358,276.97034 661.00476,277.86959 661.00476,279.25305 L 661.00476,284.58752 L 657.68445,284.58752 L 657.68445,271.30627 M 673.07751,266.41125 L 676.39783,266.41125 L 676.39783,271.30627 L 678.37537,271.30627 L 678.37537,274.17493 L 676.39783,274.17493 L 676.39783,284.58752 L 673.07751,284.58752 L 673.07751,274.17493 L 671.36853,274.17493 L 671.36853,271.30627 L 673.07751,271.30627 L 673.07751,266.41125 M 681.50037,265.83752 C 682.0863,265.83754 682.58679,266.04913 683.00183,266.47229 C 683.425,266.89548 683.63659,267.40818 683.6366,268.01038 C 683.63659,268.60447 683.42907,269.11309 683.01404,269.53625 C 682.59899,269.95131 682.10258,270.15883 681.52478,270.15881 C 680.9307,270.15883 680.42208,269.94724 679.9989,269.52405 C 679.58386,269.09275 679.37634,268.57192 679.37634,267.96155 C 679.37634,267.37563 679.58386,266.87514 679.9989,266.46008 C 680.41394,266.04506 680.91443,265.83754 681.50037,265.83752 M 679.828,271.30627 L 683.17273,271.30627 L 683.17273,284.58752 L 679.828,284.58752 L 679.828,271.30627 M 696.01453,271.30627 L 699.33484,271.30627 L 699.33484,284.58752 L 696.01453,284.58752 L 696.01453,283.18372 C 695.36347,283.80221 694.70836,284.2498 694.04919,284.52649 C 693.39814,284.79504 692.69014,284.92932 691.92517,284.92932 C 690.20804,284.92932 688.72286,284.26607 687.4696,282.93958 C 686.21635,281.60494 685.58972,279.94886 685.58972,277.97131 C 685.58972,275.92054 686.196,274.24004 687.40857,272.92981 C 688.62113,271.6196 690.09411,270.96449 691.82751,270.96448 C 692.62503,270.96449 693.37373,271.11504 694.07361,271.41614 C 694.77347,271.71726 695.42044,272.16892 696.01453,272.77112 L 696.01453,271.30627 M 692.51111,274.04065 C 691.47757,274.04066 690.61901,274.40687 689.93542,275.13928 C 689.25183,275.86357 688.91003,276.79538 688.91003,277.93469 C 688.91003,279.08216 689.2559,280.02617 689.94763,280.76672 C 690.6475,281.50729 691.50606,281.87757 692.52332,281.87756 C 693.57311,281.87757 694.44388,281.51542 695.13562,280.79114 C 695.82734,280.05872 696.17321,279.1025 696.17322,277.92249 C 696.17321,276.76689 695.82734,275.83102 695.13562,275.11487 C 694.44388,274.39873 693.56904,274.04066 692.51111,274.04065 M 702.34998,266.17932 L 705.6825,266.17932 L 705.6825,284.58752 L 702.34998,284.58752 L 702.34998,266.17932"
       style="font-size:25px;font-style:normal;font-weight:normal;fill:#6600ff;fill-opacity:1;stroke:none;stroke-width:1px;stroke-linecap:butt;stroke-linejoin:miter;stroke-opacity:1;font-family:Century Gothic"
       id="text6134" />
  </g>
</svg>
